{
classes = (
{
code = "racute r rcommaaccent uni0213 uni0211 rcaron";
name = "@KERN_LEFT_r";
},
{
code = "ycircumflex y ydieresis yacute ygrave";
name = "@KERN_LEFT_y";
},
{
code = "wgrave wcircumflex wdieresis w wacute";
name = "@KERN_RIGHT_w";
},
{
code = "Oslash Omacron D Otilde O Dcaron Q uni020E uni020C Eth Oacute Odieresis Ohungarumlaut Ograve Ocircumflex Obreve";
name = "@KERN_LEFT_D";
},
{
code = "cdotaccent ograve ocircumflex edieresis uni020F obreve ccedilla edotaccent egrave eogonek otilde ccaron dcaron oslash cacute ecircumflex odieresis ohungarumlaut ebreve omacron uni020D emacron ccircumflex eacute ecaron c e d uni0207 uni0205 o q eth oe oacute";
name = "@KERN_RIGHT_c";
},
{
code = "Y Ydieresis Yacute";
name = "@KERN_RIGHT_Y";
},
{
code = "a aring ae uni0203 aacute uni0201 amacron agrave atilde acircumflex adieresis aogonek abreve";
name = "@KERN_RIGHT_a";
},
{
code = "Oslash Omacron G C Ccaron Otilde Q Gcircumflex O uni020E uni020C Gcommaaccent Oacute Gdotaccent Gbreve Cdotaccent uni01F4 Odieresis Ohungarumlaut Ograve OE Cacute Ccircumflex Obreve Ccedilla Ocircumflex";
name = "@KERN_RIGHT_C";
},
{
code = "";
name = "@KERN_RIGHT__empty_lu.0_st.1_cl.0";
},
{
code = "";
name = "@KERN_LEFT__empty_lu.0_st.1_cl.0";
},
{
code = "Y Ydieresis Yacute";
name = "@KERN_LEFT_Y";
},
{
code = "A Aring Adieresis uni0202 uni0200 Amacron Aacute Agrave Atilde Acircumflex Abreve Aogonek";
name = "@KERN_RIGHT_A";
},
{
code = "uni021A T Tcaron";
name = "@KERN_RIGHT_T";
},
{
code = "A Aring Adieresis Aacute uni0202 Amacron Agrave Atilde Acircumflex uni0200 Aogonek Abreve";
name = "@KERN_LEFT_A";
}
);
copyright = "2011-12 Vernon Adams";
customParameters = (
{
name = openTypeHeadLowestRecPPEM;
value = 8;
},
{
name = openTypeHheaCaretOffset;
value = 0;
},
{
name = openTypeHheaCaretSlopeRise;
value = 1;
},
{
name = openTypeHheaCaretSlopeRun;
value = 0;
},
{
name = openTypeOS2Panose;
value = (
    2,
    0,
    5,
    3,
    0,
    0,
    0,
    0,
    0,
    0
);
},
{

glyphs = (
{
glyphname = A;
layers = (
{
anchors = (
{
name = ogonek;
position = "{880, 10}";
},
{
name = top;
position = "{482, 1760}";
}
);
layerId = "7DA9E391-A28A-4B33-B824-B8724EAC872C";
name = "Regular Condensed";
paths = (
{
closed = 1;
nodes = (
"52 0 LINE",
"310 0 LINE",
"482 1413 LINE",
"486 1413 LINE",
"674 0 LINE",
"924 0 LINE",
"657 1760 LINE",
"303 1760 LINE"
);
},
{
closed = 1;
nodes = (
"286 314 LINE",
"286 529 LINE",
"690 529 LINE",
"690 314 LINE"
);
}
);
width = 976;
}
);
leftKerningGroup = A;
rightKerningGroup = A;
unicode = 0041;
},
{
glyphname = AE;
layers = (
{
anchors = (
{
name = top;
position = "{685, 0}";
}
);
layerId = "7DA9E391-A28A-4B33-B824-B8724EAC872C";
name = "Regular Condensed";
paths = (
{
closed = 1;
nodes = (
"71 0 LINE",
"331 0 LINE",
"385 314 LINE",
"625 314 LINE",
"625 0 LINE",
"1183 0 LINE",
"1183 231 LINE",
"893 231 LINE",
"893 785 LINE",
"1155 785 LINE",
"1155 1017 LINE",
"893 1017 LINE",
"893 1529 LINE",
"1171 1529 LINE",
"1171 1761 LINE",
"385 1761 LINE"
);
},
{
closed = 1;
nodes = (
"415 512 LINE",
"590 1529 LINE",
"625 1530 LINE",
"625 512 LINE"
);
}
);
width = 1282;
}
);
unicode = 00C6;
},
{
glyphname = B;
layers = (
{
layerId = "7DA9E391-A28A-4B33-B824-B8724EAC872C";
name = "Regular Condensed";
paths = (
{
closed = 1;
nodes = (
"142 0 LINE",
"531 0 LINE SMOOTH",
"805 0 OFFCURVE",
"917 146 OFFCURVE",
"919 499 CURVE SMOOTH",
"919 544 LINE SMOOTH",
"919 748 OFFCURVE",
"869 913 OFFCURVE",
"731 959 CURVE",
"842 1005 OFFCURVE",
"885 1125 OFFCURVE",
"885 1308 CURVE SMOOTH",
"885 1362 LINE SMOOTH",
"884 1646 OFFCURVE",
"788 1760 OFFCURVE",
"523 1760 CURVE SMOOTH",
"142 1760 LINE"
);
},
{
closed = 1;
nodes = (
"410 208 LINE",
"410 847 LINE",
"523 847 LINE SMOOTH",
"625 847 OFFCURVE",
"649 773 OFFCURVE",
"649 602 CURVE SMOOTH",
"649 460 LINE SMOOTH",
"649 270 OFFCURVE",
"611 208 OFFCURVE",
"505 208 CURVE SMOOTH"
);
},
{
closed = 1;
nodes = (
"410 1048 LINE",
"410 1550 LINE",
"500 1550 LINE SMOOTH",
"584 1550 OFFCURVE",
"620 1521 OFFCURVE",
"621 1379 CURVE SMOOTH",
"621 1273 LINE SMOOTH",
"621 1092 OFFCURVE",
"602 1048 OFFCURVE",
"509 1048 CURVE SMOOTH"
);
}
);
width = 996;
}
);
leftKerningGroup = B;
rightKerningGroup = B;
unicode = 0042;
},
{
glyphname = C;
layers = (
{
anchors = (
{
name = bottom;
position = "{489, 0}";
},
{
name = top;
position = "{500, 1760}";
}
);
layerId = "7DA9E391-A28A-4B33-B824-B8724EAC872C";
name = "Regular Condensed";
paths = (
{
closed = 1;
nodes = (
"110 163 OFFCURVE",
"237 -20 OFFCURVE",
"493 -20 CURVE SMOOTH",
"763 -20 OFFCURVE",
"875 145 OFFCURVE",
"875 480 CURVE SMOOTH",
"875 729 LINE",
"612 729 LINE",
"612 477 LINE SMOOTH",
"612 292 OFFCURVE",
"586 210 OFFCURVE",
"496 210 CURVE SMOOTH",
"406 210 OFFCURVE",
"380 290 OFFCURVE",
"380 474 CURVE SMOOTH",
"380 1296 LINE SMOOTH",
"380 1454 OFFCURVE",
"404 1548 OFFCURVE",
"502 1548 CURVE SMOOTH",
"590 1548 OFFCURVE",
"612 1468 OFFCURVE",
"612 1295 CURVE SMOOTH",
"612 1070 LINE",
"871 1070 LINE",
"871 1312 LINE SMOOTH",
"871 1601 OFFCURVE",
"766 1780 OFFCURVE",
"500 1780 CURVE SMOOTH",
"206 1780 OFFCURVE",
"110 1575 OFFCURVE",
"110 1253 CURVE SMOOTH",
"110 486 LINE SMOOTH"
);
}
);
width = 961;
}
);
leftKerningGroup = C;
rightKerningGroup = C;
unicode = 0043;
},
{
glyphname = D;
layers = (
{
anchors = (
{
name = center;
position = "{284, 933}";
},
{
name = top;
position = "{497, 1760}";
}
);
layerId = "7DA9E391-A28A-4B33-B824-B8724EAC872C";
name = "Regular Condensed";
paths = (
{
closed = 1;
nodes = (
"399 208 LINE",
"399 1554 LINE",
"478 1554 LINE SMOOTH",
"589 1554 OFFCURVE",
"627 1481 OFFCURVE",
"627 1301 CURVE SMOOTH",
"628 432 LINE SMOOTH",
"628 254 OFFCURVE",
"581 208 OFFCURVE",
"487 208 CURVE SMOOTH"
);
},
{
closed = 1;
nodes = (
"131 0 LINE",
"517 0 LINE SMOOTH",
"793 0 OFFCURVE",
"896 167 OFFCURVE",
"896 514 CURVE SMOOTH",
"895 1308 LINE SMOOTH",
"895 1594 OFFCURVE",
"793 1760 OFFCURVE",
"526 1760 CURVE SMOOTH",
"131 1760 LINE"
);
}
);
width = 1005;
}
);
leftKerningGroup = D;
rightKerningGroup = D;
unicode = 0044;
},
{
glyphname = E;
layers = (
{
anchors = (
{
name = bottom;
position = "{479, 11}";
},
{
name = ogonek;
position = "{739, 10}";
},
{
name = top;
position = "{439, 1760}";
}
);
layerId = "7DA9E391-A28A-4B33-B824-B8724EAC872C";
name = "Regular Condensed";
paths = (
{
closed = 1;
nodes = (
"132 0 LINE",
"734 0 LINE",
"734 231 LINE",
"400 231 LINE",
"400 791 LINE",
"706 791 LINE",
"706 1017 LINE",
"400 1017 LINE",
"400 1529 LINE",
"722 1529 LINE",
"722 1760 LINE",
"132 1760 LINE"
);
}
);
width = 816;
}
);
leftKerningGroup = E;
rightKerningGroup = E;
unicode = 0045;
},
{
glyphname = F;
layers = (
{
layerId = "7DA9E391-A28A-4B33-B824-B8724EAC872C";
name = "Regular Condensed";
paths = (
{
closed = 1;
nodes = (
"131 0 LINE",
"399 0 LINE",
"399 825 LINE",
"711 825 LINE",
"711 1059 LINE",
"399 1059 LINE",
"399 1527 LINE",
"735 1527 LINE",
"735 1760 LINE",
"131 1760 LINE"
);
}
);
width = 796;
}
);
leftKerningGroup = F;
rightKerningGroup = F;
unicode = 0046;
},
{
glyphname = G;
layers = (
{
anchors = (
{
name = bottom;
position = "{505, 0}";
},
{
name = top;
position = "{505, 1760}";
}
);
layerId = "7DA9E391-A28A-4B33-B824-B8724EAC872C";
name = "Regular Condensed";
paths = (
{
closed = 1;
nodes = (
"110 139 OFFCURVE",
"251 -18 OFFCURVE",
"463 -18 CURVE SMOOTH",
"584 -18 OFFCURVE",
"690 52 OFFCURVE",
"719 173 CURVE",
"760 0 LINE",
"880 0 LINE",
"880 961 LINE",
"511 961 LINE",
"511 766 LINE",
"646 766 LINE",
"646 529 LINE SMOOTH",
"646 299 OFFCURVE",
"608 210 OFFCURVE",
"507 210 CURVE SMOOTH",
"403 210 OFFCURVE",
"380 298 OFFCURVE",
"380 519 CURVE SMOOTH",
"380 1282 LINE SMOOTH",
"380 1481 OFFCURVE",
"413 1548 OFFCURVE",
"513 1548 CURVE SMOOTH",
"603 1548 OFFCURVE",
"630 1487 OFFCURVE",
"630 1329 CURVE SMOOTH",
"630 1145 LINE",
"880 1145 LINE",
"880 1270 LINE SMOOTH",
"880 1591 OFFCURVE",
"818 1780 OFFCURVE",
"509 1780 CURVE SMOOTH",
"224 1780 OFFCURVE",
"110 1595 OFFCURVE",
"110 1280 CURVE SMOOTH",
"110 515 LINE SMOOTH"
);
}
);
width = 1000;
}
);
leftKerningGroup = G;
rightKerningGroup = G;
unicode = 0047;
},
{
glyphname = H;
layers = (
{
anchors = (
{
name = center;
position = "{520, 0}";
},
{
name = top;
position = "{520, 0}";
}
);
layerId = "7DA9E391-A28A-4B33-B824-B8724EAC872C";
name = "Regular Condensed";
paths = (
{
closed = 1;
nodes = (
"132 0 LINE",
"400 0 LINE",
"400 818 LINE",
"640 818 LINE",
"640 0 LINE",
"908 0 LINE",
"908 1760 LINE",
"640 1760 LINE",
"640 1048 LINE",
"400 1048 LINE",
"400 1760 LINE",
"132 1760 LINE"
);
}
);
width = 1040;
}
);
leftKerningGroup = H;
rightKerningGroup = H;
unicode = 0048;
},
{
glyphname = Hbar;
layers = (
{
components = (
{
name = H;
transform = "{1, 0, 0, 1, 0, 0}";
}
);
layerId = "7DA9E391-A28A-4B33-B824-B8724EAC872C";
name = "Regular Condensed";
paths = (
{
closed = 1;
nodes = (
"55 1378 LINE",
"1005 1378 LINE",
"1005 1509 LINE",
"55 1509 LINE"
);
}
);
width = 1040;
}
);
unicode = 0126;
},
{
glyphname = I;
layers = (
{
anchors = (
{
name = ogonek;
position = "{472, 10}";
},
{
name = top;
position = "{276, 1760}";
}
);
layerId = "7DA9E391-A28A-4B33-B824-B8724EAC872C";
name = "Regular Condensed";
paths = (
{
closed = 1;
nodes = (
"142 0 LINE",
"410 0 LINE",
"410 1760 LINE",
"142 1760 LINE"
);
}
);
width = 552;
}
);
leftKerningGroup = I;
rightKerningGroup = I;
unicode = 0049;
},
{
glyphname = J;
layers = (
{
anchors = (
{
name = top;
position = "{578, 1760}";
}
);
layerId = "7DA9E391-A28A-4B33-B824-B8724EAC872C";
name = "Regular Condensed";
paths = (
{
closed = 1;
nodes = (
"68 119 OFFCURVE",
"204 -20 OFFCURVE",
"434 -20 CURVE SMOOTH",
"660 -20 OFFCURVE",
"794 142 OFFCURVE",
"794 431 CURVE SMOOTH",
"794 1760 LINE",
"526 1760 LINE",
"526 418 LINE SMOOTH",
"526 290 OFFCURVE",
"514 210 OFFCURVE",
"426 210 CURVE SMOOTH",
"339 210 OFFCURVE",
"327 297 OFFCURVE",
"327 402 CURVE SMOOTH",
"327 703 LINE",
"68 703 LINE",
"68 389 LINE SMOOTH"
);
}
);
width = 922;
}
);
leftKerningGroup = J;
rightKerningGroup = J;
unicode = 004A;
},
{
glyphname = K;
layers = (
{
anchors = (
{
name = bottom;
position = "{489, 0}";
},
{
name = top;
position = "{508, 915}";
}
);
layerId = "7DA9E391-A28A-4B33-B824-B8724EAC872C";
name = "Regular Condensed";
paths = (
{
closed = 1;
nodes = (
"132 0 LINE",
"402 0 LINE",
"402 822 LINE",
"685 0 LINE",
"968 0 LINE",
"653 892 LINE",
"945 1760 LINE",
"668 1760 LINE",
"400 950 LINE",
"400 1760 LINE",
"132 1760 LINE"
);
}
);
width = 970;
}
);
leftKerningGroup = K;
rightKerningGroup = K;
unicode = 004B;
},
{
glyphname = L;
layers = (
{
anchors = (
{
name = bottom;
position = "{409, 0}";
},
{
name = top;
position = "{385, 1760}";
}
);
layerId = "7DA9E391-A28A-4B33-B824-B8724EAC872C";
name = "Regular Condensed";
paths = (
{
closed = 1;
nodes = (
"132 0 LINE",
"739 0 LINE",
"739 228 LINE",
"400 228 LINE",
"400 1760 LINE",
"132 1760 LINE"
);
}
);
width = 761;
}
);
leftKerningGroup = L;
rightKerningGroup = L;
unicode = 004C;
},
{
glyphname = Lcaron;
layers = (
{
components = (
{
name = L;
transform = "{1, 0, 0, 1, 0, 0}";
}
);
layerId = "7DA9E391-A28A-4B33-B824-B8724EAC872C";
name = "Regular Condensed";
paths = (
{
closed = 1;
nodes = (
"724 1173 LINE",
"845 1173 LINE",
"937 1486 LINE",
"937 1741 LINE",
"664 1741 LINE",
"664 1477 LINE",
"780 1477 LINE"
);
}
);
width = 779;
}
);
leftKerningGroup = L;
rightKerningGroup = L;
unicode = 013D;
},
{
glyphname = Lslash;
layers = (
{
components = (
{
name = L;
transform = "{1, 0, 0, 1, 0, 0}";
}
);
layerId = "7DA9E391-A28A-4B33-B824-B8724EAC872C";
name = "Regular Condensed";
paths = (
{
closed = 1;
nodes = (
"-1 732 LINE",
"615 961 LINE",
"615 1145 LINE",
"-1 916 LINE"
);
}
);
width = 794;
}
);
unicode = 0141;
},
{
glyphname = M;
layers = (
{
anchors = (
{
name = top;
position = "{719, 1760}";
}
);
layerId = "7DA9E391-A28A-4B33-B824-B8724EAC872C";
name = "Regular Condensed";
paths = (
{
closed = 1;
nodes = (
"132 0 LINE",
"369 0 LINE",
"369 656 LINE",
"359 1258 LINE",
"606 8 LINE",
"819 8 LINE",
"1056 1258 LINE",
"1046 656 LINE",
"1046 0 LINE",
"1285 0 LINE",
"1285 1760 LINE",
"950 1760 LINE",
"715 474 LINE",
"465 1760 LINE",
"132 1760 LINE"
);
}
);
width = 1418;
}
);
leftKerningGroup = M;
rightKerningGroup = M;
unicode = 004D;
},
{
glyphname = N;
layers = (
{
anchors = (
{
name = bottom;
position = "{535, 0}";
},
{
name = top;
position = "{535, 1760}";
}
);
layerId = "7DA9E391-A28A-4B33-B824-B8724EAC872C";
name = "Regular Condensed";
paths = (
{
closed = 1;
nodes = (
"132 0 LINE",
"379 0 LINE",
"379 631 LINE",
"364 1093 LINE",
"747 0 LINE",
"937 0 LINE",
"937 1760 LINE",
"696 1760 LINE",
"696 1184 LINE",
"715 704 LINE",
"342 1760 LINE",
"132 1760 LINE"
);
}
);
width = 1069;
}
);
leftKerningGroup = N;
rightKerningGroup = N;
unicode = 004E;
},
{
glyphname = O;
layers = (
{
anchors = (
{
name = top;
position = "{499, 1764}";
}
);
layerId = "7DA9E391-A28A-4B33-B824-B8724EAC872C";
name = "Regular Condensed";
paths = (
{
closed = 1;
nodes = (
"619 300 OFFCURVE",
"601 212 OFFCURVE",
"502 212 CURVE SMOOTH",
"397 212 OFFCURVE",
"380 296 OFFCURVE",
"380 489 CURVE SMOOTH",
"380 1310 LINE SMOOTH",
"380 1467 OFFCURVE",
"408 1549 OFFCURVE",
"505 1549 CURVE SMOOTH",
"600 1549 OFFCURVE",
"619 1462 OFFCURVE",
"619 1309 CURVE SMOOTH",
"619 489 LINE SMOOTH"
);
},
{
closed = 1;
nodes = (
"110 155 OFFCURVE",
"228 -20 OFFCURVE",
"502 -20 CURVE SMOOTH",
"776 -20 OFFCURVE",
"888 155 OFFCURVE",
"888 492 CURVE SMOOTH",
"888 1297 LINE SMOOTH",
"888 1600 OFFCURVE",
"787 1781 OFFCURVE",
"505 1781 CURVE SMOOTH",
"223 1781 OFFCURVE",
"110 1600 OFFCURVE",
"110 1297 CURVE SMOOTH",
"110 492 LINE SMOOTH"
);
}
);
width = 999;
}
);
leftKerningGroup = O;
rightKerningGroup = O;
unicode = 004F;
},
{
glyphname = Oslash;
layers = (
{
anchors = (
{
name = top;
position = "{548, 0}";
}
);
components = (
{
name = O;
transform = "{1, 0, 0, 1, 0, 0}";
}
);
layerId = "7DA9E391-A28A-4B33-B824-B8724EAC872C";
name = "Regular Condensed";
paths = (
{
closed = 1;
nodes = (
"193 -206 LINE",
"929 1870 LINE",
"822 1906 LINE",
"94 -166 LINE"
);
}
);
width = 900;
}
);
unicode = 00D8;
},
{
glyphname = OE;
layers = (
{
anchors = (
{
name = top;
position = "{656, 0}";
}
);
layerId = "7DA9E391-A28A-4B33-B824-B8724EAC872C";
name = "Regular Condensed";
paths = (
{
closed = 1;
nodes = (
"116 157 OFFCURVE",
"230 0 OFFCURVE",
"503 0 CURVE SMOOTH",
"1159 0 LINE",
"1159 231 LINE",
"882 231 LINE",
"882 785 LINE",
"1131 785 LINE",
"1131 1017 LINE",
"882 1017 LINE",
"882 1529 LINE",
"1147 1529 LINE",
"1147 1761 LINE",
"506 1761 LINE SMOOTH",
"224 1761 OFFCURVE",
"116 1598 OFFCURVE",
"116 1295 CURVE SMOOTH",
"116 494 LINE SMOOTH"
);
},
{
closed = 1;
nodes = (
"503 233 LINE",
"399 234 OFFCURVE",
"384 298 OFFCURVE",
"384 491 CURVE SMOOTH",
"384 1305 LINE SMOOTH",
"384 1461 OFFCURVE",
"410 1524 OFFCURVE",
"506 1524 CURVE SMOOTH",
"614 1524 LINE",
"614 233 LINE"
);
}
);
width = 1258;
}
);
unicode = 0152;
},
{
glyphname = P;
layers = (
{
anchors = (
{
name = top;
position = "{476, 1760}";
}
);
layerId = "7DA9E391-A28A-4B33-B824-B8724EAC872C";
name = "Regular Condensed";
paths = (
{
closed = 1;
nodes = (
"132 0 LINE",
"400 0 LINE",
"400 694 LINE",
"545 694 LINE SMOOTH",
"821 694 OFFCURVE",
"896 886 OFFCURVE",
"896 1227 CURVE SMOOTH",
"896 1236 OFFCURVE",
"896 1255 OFFCURVE",
"896 1264 CURVE SMOOTH",
"891 1586 OFFCURVE",
"816 1760 OFFCURVE",
"536 1760 CURVE SMOOTH",
"132 1760 LINE"
);
},
{
closed = 1;
nodes = (
"400 915 LINE",
"400 1554 LINE",
"494 1554 LINE SMOOTH",
"607 1554 OFFCURVE",
"627 1455 OFFCURVE",
"628 1264 CURVE SMOOTH",
"628 1258 OFFCURVE",
"628 1236 OFFCURVE",
"628 1230 CURVE SMOOTH",
"628 997 OFFCURVE",
"610 915 OFFCURVE",
"492 915 CURVE SMOOTH"
);
}
);
width = 944;
}
);
leftKerningGroup = P;
rightKerningGroup = P;
unicode = 0050;
},
{
glyphname = Thorn;
layers = (
{
layerId = "7DA9E391-A28A-4B33-B824-B8724EAC872C";
name = "Regular Condensed";
paths = (
{
closed = 1;
nodes = (
"146 0 LINE",
"414 0 LINE",
"414 408 LINE",
"559 408 LINE SMOOTH",
"835 408 OFFCURVE",
"910 612 OFFCURVE",
"910 953 CURVE SMOOTH",
"910 959 OFFCURVE",
"910 975 OFFCURVE",
"910 981 CURVE SMOOTH",
"906 1310 OFFCURVE",
"832 1497 OFFCURVE",
"550 1497 CURVE SMOOTH",
"414 1497 LINE",
"414 1761 LINE",
"146 1761 LINE"
);
},
{
closed = 1;
nodes = (
"414 630 LINE",
"414 1290 LINE",
"508 1290 LINE SMOOTH",
"624 1290 OFFCURVE",
"642 1177 OFFCURVE",
"642 979 CURVE SMOOTH",
"642 976 OFFCURVE",
"642 958 OFFCURVE",
"642 955 CURVE SMOOTH",
"642 723 OFFCURVE",
"624 630 OFFCURVE",
"506 630 CURVE SMOOTH"
);
}
);
width = 982;
}
);
unicode = 00DE;
},
{
glyphname = Q;
layers = (
{
components = (
{
name = O;
transform = "{1, 0, 0, 1, 0, 0}";
}
);
layerId = "7DA9E391-A28A-4B33-B824-B8724EAC872C";
name = "Regular Condensed";
paths = (
{
closed = 1;
nodes = (
"716 -292 LINE",
"848 -177 LINE",
"622 87 LINE",
"452 -5 LINE"
);
}
);
width = 1009;
}
);
unicode = 0051;
},
{
glyphname = R;
layers = (
{
anchors = (
{
name = bottom;
position = "{509, 0}";
},
{
name = top;
position = "{509, 1760}";
}
);
layerId = "7DA9E391-A28A-4B33-B824-B8724EAC872C";
name = "Regular Condensed";
paths = (
{
closed = 1;
nodes = (
"132 0 LINE",
"400 0 LINE",
"400 831 LINE",
"406 831 OFFCURVE",
"481 827 OFFCURVE",
"486 827 CURVE SMOOTH",
"599 825 OFFCURVE",
"627 788 OFFCURVE",
"627 631 CURVE SMOOTH",
"627 424 OFFCURVE",
"628 18 OFFCURVE",
"637 0 CURVE",
"905 0 LINE",
"895 25 OFFCURVE",
"895 412 OFFCURVE",
"895 447 CURVE SMOOTH",
"895 787 OFFCURVE",
"854 910 OFFCURVE",
"732 932 CURVE",
"861 972 OFFCURVE",
"892 1087 OFFCURVE",
"892 1294 CURVE SMOOTH",
"892 1594 OFFCURVE",
"851 1760 OFFCURVE",
"575 1760 CURVE SMOOTH",
"132 1760 LINE"
);
},
{
closed = 1;
nodes = (
"401 1039 LINE",
"401 1554 LINE",
"492 1554 LINE SMOOTH",
"611 1554 OFFCURVE",
"627 1509 OFFCURVE",
"627 1323 CURVE SMOOTH",
"627 1322 OFFCURVE",
"627 1314 OFFCURVE",
"627 1312 CURVE SMOOTH",
"627 1089 OFFCURVE",
"606 1039 OFFCURVE",
"508 1039 CURVE SMOOTH"
);
}
);
width = 1010;
}
);
leftKerningGroup = R;
rightKerningGroup = R;
unicode = 0052;
},
{
glyphname = S;
layers = (
{
anchors = (
{
name = bottom;
position = "{457, 0}";
},
{
name = top;
position = "{476, 1758}";
}
);
layerId = "7DA9E391-A28A-4B33-B824-B8724EAC872C";
name = "Regular Condensed";
paths = (
{
closed = 1;
nodes = (
"97 170 OFFCURVE",
"182 -20 OFFCURVE",
"475 -20 CURVE SMOOTH",
"751 -20 OFFCURVE",
"841 147 OFFCURVE",
"841 463 CURVE SMOOTH",
"841 661 OFFCURVE",
"760 816 OFFCURVE",
"621 966 CURVE SMOOTH",
"476 1123 LINE SMOOTH",
"390 1215 OFFCURVE",
"347 1267 OFFCURVE",
"347 1378 CURVE SMOOTH",
"347 1499 OFFCURVE",
"381 1553 OFFCURVE",
"464 1553 CURVE SMOOTH",
"552 1553 OFFCURVE",
"571 1474 OFFCURVE",
"571 1314 CURVE SMOOTH",
"571 1188 LINE",
"818 1188 LINE",
"818 1297 LINE SMOOTH",
"818 1603 OFFCURVE",
"749 1781 OFFCURVE",
"466 1781 CURVE SMOOTH",
"185 1781 OFFCURVE",
"95 1629 OFFCURVE",
"95 1351 CURVE SMOOTH",
"95 1158 OFFCURVE",
"180 1029 OFFCURVE",
"287 918 CURVE SMOOTH",
"417 784 LINE SMOOTH",
"529 667 OFFCURVE",
"584 565 OFFCURVE",
"584 433 CURVE SMOOTH",
"584 273 OFFCURVE",
"566 209 OFFCURVE",
"470 209 CURVE SMOOTH",
"376 209 OFFCURVE",
"351 285 OFFCURVE",
"351 475 CURVE SMOOTH",
"351 652 LINE",
"97 652 LINE",
"97 495 LINE SMOOTH"
);
}
);
width = 905;
}
);
leftKerningGroup = S;
rightKerningGroup = S;
unicode = 0053;
},
{
glyphname = T;
layers = (
{
anchors = (
{
name = bottom;
position = "{352, 0}";
},
{
name = center;
position = "{352, 943}";
},
{
name = top;
position = "{352, 1760}";
}
);
layerId = "7DA9E391-A28A-4B33-B824-B8724EAC872C";
name = "Regular Condensed";
paths = (
{
closed = 1;
nodes = (
"222 0 LINE",
"489 0 LINE",
"489 1528 LINE",
"687 1528 LINE",
"687 1760 LINE",
"16 1760 LINE",
"16 1528 LINE",
"222 1528 LINE"
);
}
);
width = 703;
}
);
leftKerningGroup = T;
rightKerningGroup = T;
unicode = 0054;
},
{
glyphname = U;
layers = (
{
anchors = (
{
name = ogonek;
position = "{702, 10}";
},
{
name = top;
position = "{510, 1757}";
}
);
layerId = "7DA9E391-A28A-4B33-B824-B8724EAC872C";
name = "Regular Condensed";
paths = (
{
closed = 1;
nodes = (
"122 132 OFFCURVE",
"237 -20 OFFCURVE",
"511 -20 CURVE SMOOTH",
"785 -20 OFFCURVE",
"898 132 OFFCURVE",
"898 452 CURVE SMOOTH",
"898 1761 LINE",
"630 1761 LINE",
"630 457 LINE SMOOTH",
"630 307 OFFCURVE",
"625 209 OFFCURVE",
"510 209 CURVE SMOOTH",
"397 209 OFFCURVE",
"390 308 OFFCURVE",
"390 457 CURVE SMOOTH",
"390 1761 LINE",
"122 1761 LINE",
"122 452 LINE SMOOTH"
);
}
);
width = 1020;
}
);
leftKerningGroup = U;
rightKerningGroup = U;
unicode = 0055;
},
{
glyphname = V;
layers = (
{
layerId = "7DA9E391-A28A-4B33-B824-B8724EAC872C";
name = "Regular Condensed";
paths = (
{
closed = 1;
nodes = (
"329 0 LINE",
"660 0 LINE",
"911 1760 LINE",
"661 1760 LINE",
"565 965 LINE",
"504 405 LINE",
"497 405 LINE",
"426 965 LINE",
"311 1760 LINE",
"56 1760 LINE"
);
}
);
width = 966;
}
);
unicode = 0056;
},
{
glyphname = W;
layers = (
{
anchors = (
{
name = top;
position = "{699, 1760}";
}
);
layerId = "7DA9E391-A28A-4B33-B824-B8724EAC872C";
name = "Regular Condensed";
paths = (
{
closed = 1;
nodes = (
"275 0 LINE",
"542 0 LINE",
"704 1170 LINE",
"860 0 LINE",
"1127 0 LINE",
"1329 1760 LINE",
"1088 1760 LINE",
"974 506 LINE",
"809 1760 LINE",
"593 1760 LINE",
"429 506 LINE",
"300 1760 LINE",
"60 1760 LINE"
);
}
);
width = 1388;
}
);
leftKerningGroup = W;
rightKerningGroup = W;
unicode = 0057;
},
{
glyphname = X;
layers = (
{
layerId = "7DA9E391-A28A-4B33-B824-B8724EAC872C";
name = "Regular Condensed";
paths = (
{
closed = 1;
nodes = (
"35 0 LINE",
"294 0 LINE",
"493 741 LINE",
"529 744 LINE",
"829 1760 LINE",
"578 1760 LINE",
"375 1008 LINE",
"324 1008 LINE"
);
},
{
closed = 1;
nodes = (
"618 0 LINE",
"850 0 LINE",
"262 1760 LINE",
"36 1760 LINE"
);
}
);
width = 879;
}
);
unicode = 0058;
},
{
glyphname = Y;
layers = (
{
anchors = (
{
name = top;
position = "{435, 1760}";
}
);
layerId = "7DA9E391-A28A-4B33-B824-B8724EAC872C";
name = "Regular Condensed";
paths = (
{
closed = 1;
nodes = (
"304 0 LINE",
"572 0 LINE",
"572 703 LINE",
"853 1760 LINE",
"598 1760 LINE",
"443 1102 LINE",
"439 1102 LINE",
"265 1760 LINE",
"9 1760 LINE",
"304 703 LINE"
);
}
);
width = 862;
}
);
leftKerningGroup = Y;
rightKerningGroup = Y;
unicode = 0059;
},
{
glyphname = Z;
layers = (
{
anchors = (
{
name = top;
position = "{450, 1760}";
}
);
layerId = "7DA9E391-A28A-4B33-B824-B8724EAC872C";
name = "Regular Condensed";
paths = (
{
closed = 1;
nodes = (
"98 0 LINE",
"736 0 LINE",
"736 231 LINE",
"379 231 LINE",
"744 1543 LINE",
"744 1760 LINE",
"131 1760 LINE",
"131 1529 LINE",
"463 1529 LINE",
"98 238 LINE"
);
}
);
width = 810;
}
);
leftKerningGroup = Z;
rightKerningGroup = Z;
unicode = 005A;
},
{
glyphname = a;
layers = (
{
anchors = (
{
name = ogonek;
position = "{883, 10}";
},
{
name = top;
position = "{510, 1500}";
}
);
layerId = "7DA9E391-A28A-4B33-B824-B8724EAC872C";
name = "Regular Condensed";
paths = (
{
closed = 1;
nodes = (
"109 147 OFFCURVE",
"176 -15 OFFCURVE",
"382 -15 CURVE SMOOTH",
"494 -15 OFFCURVE",
"570 63 OFFCURVE",
"595 149 CURVE",
"595 0 LINE",
"862 0 LINE",
"862 1070 LINE SMOOTH",
"862 1361 OFFCURVE",
"760 1518 OFFCURVE",
"501 1518 CURVE SMOOTH",
"207 1518 OFFCURVE",
"127 1355 OFFCURVE",
"127 1081 CURVE SMOOTH",
"127 1036 LINE",
"389 1036 LINE",
"389 1103 LINE SMOOTH",
"389 1240 OFFCURVE",
"406 1304 OFFCURVE",
"493 1304 CURVE SMOOTH",
"581 1304 OFFCURVE",
"591 1246 OFFCURVE",
"591 1095 CURVE SMOOTH",
"591 305 LINE",
"581 255 OFFCURVE",
"540 196 OFFCURVE",
"474 196 CURVE SMOOTH",
"402 196 OFFCURVE",
"377 254 OFFCURVE",
"377 392 CURVE SMOOTH",
"377 553 LINE SMOOTH",
"377 704 OFFCURVE",
"435 746 OFFCURVE",
"606 821 CURVE",
"606 970 LINE",
"308 858 OFFCURVE",
"107 815 OFFCURVE",
"107 490 CURVE SMOOTH",
"107 394 LINE SMOOTH"
);
}
);
width = 981;
}
);
leftKerningGroup = a;
rightKerningGroup = a;
unicode = 0061;
},
{
glyphname = ae;
layers = (
{
anchors = (
{
name = top;
position = "{763, 221}";
}
);
layerId = "7DA9E391-A28A-4B33-B824-B8724EAC872C";
name = "Regular Condensed";
paths = (
{
closed = 1;
nodes = (
"86 142 OFFCURVE",
"198 -15 OFFCURVE",
"417 -15 CURVE SMOOTH",
"542 -15 OFFCURVE",
"650 54 OFFCURVE",
"697 128 CURVE",
"739 41 OFFCURVE",
"830 -18 OFFCURVE",
"964 -18 CURVE SMOOTH",
"1267 -18 OFFCURVE",
"1316 184 OFFCURVE",
"1316 499 CURVE SMOOTH",
"1316 569 LINE",
"1053 569 LINE",
"1053 566 OFFCURVE",
"1054 494 OFFCURVE",
"1054 464 CURVE SMOOTH",
"1054 323 OFFCURVE",
"1052 196 OFFCURVE",
"950 196 CURVE SMOOTH",
"859 196 OFFCURVE",
"839 287 OFFCURVE",
"839 472 CURVE SMOOTH",
"839 726 LINE",
"1316 726 LINE",
"1318 752 OFFCURVE",
"1318 1053 OFFCURVE",
"1318 1053 CURVE SMOOTH",
"1318 1340 OFFCURVE",
"1236 1518 OFFCURVE",
"956 1518 CURVE SMOOTH",
"839 1518 OFFCURVE",
"759 1480 OFFCURVE",
"709 1409 CURVE",
"665 1481 OFFCURVE",
"593 1518 OFFCURVE",
"480 1518 CURVE SMOOTH",
"186 1518 OFFCURVE",
"106 1355 OFFCURVE",
"106 1081 CURVE SMOOTH",
"106 1071 OFFCURVE",
"106 1042 OFFCURVE",
"107 1036 CURVE",
"368 1036 LINE",
"368 1109 LINE SMOOTH",
"368 1247 OFFCURVE",
"388 1304 OFFCURVE",
"471 1304 CURVE SMOOTH",
"560 1304 OFFCURVE",
"570 1205 OFFCURVE",
"571 1061 CURVE SMOOTH",
"572 1038 OFFCURVE",
"571 969 OFFCURVE",
"571 969 CURVE",
"280 860 OFFCURVE",
"91 814 OFFCURVE",
"86 506 CURVE SMOOTH",
"86 501 OFFCURVE",
"86 411 OFFCURVE",
"86 406 CURVE SMOOTH"
);
},
{
closed = 1;
nodes = (
"560 256 OFFCURVE",
"519 197 OFFCURVE",
"453 197 CURVE SMOOTH",
"381 197 OFFCURVE",
"356 255 OFFCURVE",
"356 393 CURVE SMOOTH",
"356 544 LINE SMOOTH",
"356 694 OFFCURVE",
"406 731 OFFCURVE",
"570 803 CURVE",
"570 306 LINE"
);
},
{
closed = 1;
nodes = (
"839 906 LINE",
"839 1057 LINE SMOOTH",
"839 1206 OFFCURVE",
"847 1309 OFFCURVE",
"954 1309 CURVE SMOOTH",
"1039 1309 OFFCURVE",
"1053 1229 OFFCURVE",
"1053 1079 CURVE SMOOTH",
"1053 906 LINE"
);
}
);
width = 1403;
}
);
unicode = 00E6;
},
{
glyphname = b;
layers = (
{
layerId = "7DA9E391-A28A-4B33-B824-B8724EAC872C";
name = "Regular Condensed";
paths = (
{
closed = 1;
nodes = (
"439 31 OFFCURVE",
"516 -15 OFFCURVE",
"605 -15 CURVE SMOOTH",
"821 -15 OFFCURVE",
"885 179 OFFCURVE",
"885 434 CURVE SMOOTH",
"885 1069 LINE SMOOTH",
"885 1333 OFFCURVE",
"822 1522 OFFCURVE",
"585 1518 CURVE SMOOTH",
"512 1517 OFFCURVE",
"427 1470 OFFCURVE",
"397 1392 CURVE",
"397 1775 LINE",
"132 1775 LINE",
"132 0 LINE",
"397 0 LINE",
"397 140 LINE"
);
},
{
closed = 1;
nodes = (
"619 287 OFFCURVE",
"608 197 OFFCURVE",
"516 197 CURVE SMOOTH",
"415 197 OFFCURVE",
"397 291 OFFCURVE",
"397 456 CURVE SMOOTH",
"397 1074 LINE SMOOTH",
"397 1253 OFFCURVE",
"435 1304 OFFCURVE",
"518 1304 CURVE SMOOTH",
"609 1304 OFFCURVE",
"619 1209 OFFCURVE",
"619 1073 CURVE SMOOTH",
"619 459 LINE SMOOTH"
);
}
);
width = 996;
}
);
leftKerningGroup = b;
rightKerningGroup = b;
unicode = 0062;
},
{
glyphname = c;
layers = (
{
anchors = (
{
name = bottom;
position = "{472, 0}";
},
{
name = top;
position = "{502, 1500}";
}
);
layerId = "7DA9E391-A28A-4B33-B824-B8724EAC872C";
name = "Regular Condensed";
paths = (
{
closed = 1;
nodes = (
"110 177 OFFCURVE",
"186 -18 OFFCURVE",
"494 -18 CURVE SMOOTH",
"759 -18 OFFCURVE",
"847 163 OFFCURVE",
"847 439 CURVE SMOOTH",
"847 591 LINE",
"591 591 LINE",
"591 413 LINE SMOOTH",
"591 283 OFFCURVE",
"577 199 OFFCURVE",
"487 199 CURVE SMOOTH",
"395 199 OFFCURVE",
"377 278 OFFCURVE",
"377 414 CURVE SMOOTH",
"377 1090 LINE SMOOTH",
"377 1222 OFFCURVE",
"400 1301 OFFCURVE",
"491 1301 CURVE SMOOTH",
"583 1301 OFFCURVE",
"591 1224 OFFCURVE",
"591 1094 CURVE SMOOTH",
"591 920 LINE",
"847 920 LINE",
"847 1085 LINE SMOOTH",
"847 1351 OFFCURVE",
"756 1518 OFFCURVE",
"497 1518 CURVE SMOOTH",
"181 1518 OFFCURVE",
"110 1317 OFFCURVE",
"110 986 CURVE SMOOTH",
"110 500 LINE SMOOTH"
);
}
);
width = 943;
}
);
leftKerningGroup = c;
rightKerningGroup = c;
unicode = 0063;
},
{
glyphname = d;
layers = (
{
anchors = (
{
name = center;
position = "{715, 1623}";
}
);
layerId = "7DA9E391-A28A-4B33-B824-B8724EAC872C";
name = "Regular Condensed";
paths = (
{
closed = 1;
nodes = (
"110 201 OFFCURVE",
"142 -15 OFFCURVE",
"386 -15 CURVE SMOOTH",
"489 -15 OFFCURVE",
"561 37 OFFCURVE",
"601 139 CURVE",
"601 0 LINE",
"866 0 LINE",
"866 1775 LINE",
"601 1775 LINE",
"601 1407 LINE",
"563 1473 OFFCURVE",
"492 1518 OFFCURVE",
"407 1518 CURVE SMOOTH",
"190 1518 OFFCURVE",
"110 1331 OFFCURVE",
"110 1090 CURVE SMOOTH",
"110 479 LINE SMOOTH"
);
},
{
closed = 1;
nodes = (
"602 280 OFFCURVE",
"580 196 OFFCURVE",
"484 196 CURVE SMOOTH",
"400 196 OFFCURVE",
"377 288 OFFCURVE",
"377 443 CURVE SMOOTH",
"377 1060 LINE SMOOTH",
"377 1215 OFFCURVE",
"397 1303 OFFCURVE",
"488 1303 CURVE SMOOTH",
"583 1303 OFFCURVE",
"602 1209 OFFCURVE",
"602 1063 CURVE SMOOTH",
"602 463 LINE SMOOTH"
);
}
);
width = 998;
}
);
leftKerningGroup = d;
rightKerningGroup = d;
unicode = 0064;
},
{
glyphname = eth;
layers = (
{
layerId = "7DA9E391-A28A-4B33-B824-B8724EAC872C";
name = "Regular Condensed";
paths = (
{
closed = 1;
nodes = (
"95 152 OFFCURVE",
"188 -21 OFFCURVE",
"491 -21 CURVE SMOOTH",
"817 -21 OFFCURVE",
"883 174 OFFCURVE",
"883 527 CURVE SMOOTH",
"883 857 LINE",
"883 1022 OFFCURVE",
"838 1382 OFFCURVE",
"773 1498 CURVE",
"952 1598 LINE",
"886 1735 LINE",
"687 1625 LINE",
"610 1715 OFFCURVE",
"510 1765 OFFCURVE",
"406 1781 CURVE",
"269 1630 LINE",
"335 1607 OFFCURVE",
"410 1569 OFFCURVE",
"466 1505 CURVE",
"277 1399 LINE",
"342 1262 LINE",
"551 1378 LINE",
"586 1307 OFFCURVE",
"605 1085 OFFCURVE",
"605 1042 CURVE",
"569 1076 OFFCURVE",
"518 1097 OFFCURVE",
"441 1098 CURVE SMOOTH",
"191 1103 OFFCURVE",
"95 935 OFFCURVE",
"95 586 CURVE SMOOTH",
"95 483 LINE SMOOTH"
);
},
{
closed = 1;
nodes = (
"615 285 OFFCURVE",
"588 212 OFFCURVE",
"489 212 CURVE SMOOTH",
"393 212 OFFCURVE",
"363 264 OFFCURVE",
"363 434 CURVE SMOOTH",
"363 613 LINE SMOOTH",
"363 801 OFFCURVE",
"389 873 OFFCURVE",
"482 873 CURVE SMOOTH",
"558 873 OFFCURVE",
"607 831 OFFCURVE",
"615 776 CURVE",
"615 456 LINE SMOOTH"
);
}
);
width = 1013;
}
);
unicode = 00F0;
},
{
glyphname = e;
layers = (
{
anchors = (
{
name = bottom;
position = "{518, 0}";
},
{
name = ogonek;
position = "{700, 10}";
},
{
name = top;
position = "{486, 1499}";
}
);
layerId = "7DA9E391-A28A-4B33-B824-B8724EAC872C";
name = "Regular Condensed";
paths = (
{
closed = 1;
nodes = (
"110 183 OFFCURVE",
"180 -18 OFFCURVE",
"481 -18 CURVE SMOOTH",
"793 -18 OFFCURVE",
"852 167 OFFCURVE",
"852 489 CURVE SMOOTH",
"852 569 LINE",
"590 569 LINE",
"590 437 LINE SMOOTH",
"590 296 OFFCURVE",
"589 196 OFFCURVE",
"487 196 CURVE SMOOTH",
"385 196 OFFCURVE",
"377 291 OFFCURVE",
"377 437 CURVE SMOOTH",
"377 732 LINE",
"854 732 LINE",
"854 1053 LINE SMOOTH",
"854 1340 OFFCURVE",
"773 1518 OFFCURVE",
"493 1518 CURVE SMOOTH",
"218 1518 OFFCURVE",
"110 1338 OFFCURVE",
"110 1058 CURVE SMOOTH",
"110 499 LINE SMOOTH"
);
},
{
closed = 1;
nodes = (
"376 887 LINE",
"376 1072 LINE SMOOTH",
"376 1208 OFFCURVE",
"385 1309 OFFCURVE",
"491 1309 CURVE SMOOTH",
"576 1309 OFFCURVE",
"590 1229 OFFCURVE",
"590 1079 CURVE SMOOTH",
"590 887 LINE"
);
}
);
width = 958;
}
);
leftKerningGroup = e;
rightKerningGroup = e;
unicode = 0065;
},
{
glyphname = f;
layers = (
{
layerId = "7DA9E391-A28A-4B33-B824-B8724EAC872C";
name = "Regular Condensed";
paths = (
{
closed = 1;
nodes = (
"173 0 LINE",
"438 0 LINE",
"438 1250 LINE",
"590 1250 LINE",
"590 1441 LINE",
"438 1441 LINE",
"438 1511 LINE SMOOTH",
"438 1569 OFFCURVE",
"462 1597 OFFCURVE",
"530 1597 CURVE SMOOTH",
"548 1597 OFFCURVE",
"568 1596 OFFCURVE",
"590 1593 CURVE",
"590 1759 LINE",
"574 1765 OFFCURVE",
"507 1784 OFFCURVE",
"425 1784 CURVE SMOOTH",
"264 1784 OFFCURVE",
"174 1687 OFFCURVE",
"174 1519 CURVE SMOOTH",
"174 1441 LINE",
"57 1441 LINE",
"57 1250 LINE",
"173 1250 LINE"
);
}
);
width = 637;
}
);
leftKerningGroup = f;
rightKerningGroup = f;
unicode = 0066;
},
{
glyphname = g;
layers = (
{
anchors = (
{
name = top;
position = "{520, 1500}";
}
);
layerId = "7DA9E391-A28A-4B33-B824-B8724EAC872C";
name = "Regular Condensed";
paths = (
{
closed = 1;
nodes = (
"195 -195 OFFCURVE",
"303 -228 OFFCURVE",
"469 -225 CURVE SMOOTH",
"768 -220 OFFCURVE",
"865 -53 OFFCURVE",
"865 185 CURVE SMOOTH",
"865 1500 LINE",
"600 1500 LINE",
"600 1367 LINE",
"573 1464 OFFCURVE",
"505 1518 OFFCURVE",
"402 1518 CURVE SMOOTH",
"181 1520 OFFCURVE",
"114 1326 OFFCURVE",
"114 1065 CURVE SMOOTH",
"114 582 LINE SMOOTH",
"114 335 OFFCURVE",
"178 153 OFFCURVE",
"391 153 CURVE SMOOTH",
"492 153 OFFCURVE",
"565 184 OFFCURVE",
"600 284 CURVE",
"600 165 LINE SMOOTH",
"600 49 OFFCURVE",
"545 -26 OFFCURVE",
"444 -27 CURVE SMOOTH",
"346 -29 OFFCURVE",
"264 4 OFFCURVE",
"193 49 CURVE",
"100 -118 LINE"
);
},
{
closed = 1;
nodes = (
"600 408 OFFCURVE",
"567 354 OFFCURVE",
"496 354 CURVE SMOOTH",
"399 354 OFFCURVE",
"381 446 OFFCURVE",
"381 594 CURVE SMOOTH",
"381 1088 LINE SMOOTH",
"381 1213 OFFCURVE",
"392 1304 OFFCURVE",
"489 1304 CURVE SMOOTH",
"573 1304 OFFCURVE",
"600 1219 OFFCURVE",
"600 1087 CURVE SMOOTH",
"600 596 LINE SMOOTH"
);
}
);
width = 990;
}
);
leftKerningGroup = g;
rightKerningGroup = g;
unicode = 0067;
},
{
glyphname = h;
layers = (
{
anchors = (
{
name = center;
position = "{270, 1602}";
},
{
name = top;
position = "{533, 1760}";
}
);
layerId = "7DA9E391-A28A-4B33-B824-B8724EAC872C";
name = "Regular Condensed";
paths = (
{
closed = 1;
nodes = (
"132 0 LINE",
"397 0 LINE",
"397 1115 LINE SMOOTH",
"397 1227 OFFCURVE",
"441 1301 OFFCURVE",
"524 1301 CURVE SMOOTH",
"592 1301 OFFCURVE",
"630 1252 OFFCURVE",
"630 1156 CURVE SMOOTH",
"630 0 LINE",
"894 0 LINE",
"894 1181 LINE SMOOTH",
"894 1399 OFFCURVE",
"804 1518 OFFCURVE",
"630 1518 CURVE SMOOTH",
"507 1518 OFFCURVE",
"423 1430 OFFCURVE",
"397 1328 CURVE",
"397 1775 LINE",
"132 1775 LINE"
);
}
);
width = 1016;
}
);
leftKerningGroup = h;
rightKerningGroup = h;
unicode = 0068;
},
{
glyphname = hbar;
layers = (
{
components = (
{
name = h;
transform = "{1, 0, 0, 1, 0, 0}";
}
);
layerId = "7DA9E391-A28A-4B33-B824-B8724EAC872C";
name = "Regular Condensed";
paths = (
{
closed = 1;
nodes = (
"663 1593 LINE",
"663 1702 LINE",
"0 1702 LINE",
"0 1593 LINE"
);
}
);
width = 1016;
}
);
unicode = 0127;
},
{
glyphname = i;
layers = (
{
layerId = "7DA9E391-A28A-4B33-B824-B8724EAC872C";
name = "Regular Condensed";
paths = (
{
closed = 1;
nodes = (
"136 0 LINE",
"401 0 LINE",
"401 1500 LINE",
"136 1500 LINE"
);
},
{
closed = 1;
nodes = (
"136 1607 LINE",
"401 1607 LINE",
"401 1800 LINE",
"136 1800 LINE"
);
}
);
width = 534;
}
);
leftKerningGroup = i;
rightKerningGroup = i;
unicode = 0069;
},
{
glyphname = dotlessi;
layers = (
{
anchors = (
{
name = ogonek;
position = "{469, 10}";
},
{
name = top;
position = "{264, 1500}";
}
);
layerId = "7DA9E391-A28A-4B33-B824-B8724EAC872C";
name = "Regular Condensed";
paths = (
{
closed = 1;
nodes = (
"136 0 LINE",
"401 0 LINE",
"401 1500 LINE",
"136 1500 LINE"
);
}
);
width = 537;
}
);
unicode = 0131;
},
{
glyphname = j;
layers = (
{
layerId = "7DA9E391-A28A-4B33-B824-B8724EAC872C";
name = "Regular Condensed";
paths = (
{
closed = 1;
nodes = (
"74 -189 OFFCURVE",
"147 -200 OFFCURVE",
"222 -196 CURVE SMOOTH",
"352 -193 OFFCURVE",
"434 -109 OFFCURVE",
"434 79 CURVE SMOOTH",
"434 1500 LINE",
"169 1500 LINE",
"169 69 LINE SMOOTH",
"169 32 OFFCURVE",
"154 4 OFFCURVE",
"106 2 CURVE SMOOTH",
"89 0 OFFCURVE",
"65 2 OFFCURVE",
"61 3 CURVE",
"61 -180 LINE"
);
},
{
closed = 1;
nodes = (
"165 1623 LINE",
"432 1623 LINE",
"432 1868 LINE",
"165 1868 LINE"
);
}
);
width = 564;
}
);
leftKerningGroup = j;
rightKerningGroup = j;
unicode = 006A;
},
{
glyphname = uni0237;
layers = (
{
anchors = (
{
name = top;
position = "{308, 1500}";
}
);
layerId = "7DA9E391-A28A-4B33-B824-B8724EAC872C";
name = "Regular Condensed";
paths = (
{
closed = 1;
nodes = (
"78 -159 OFFCURVE",
"151 -170 OFFCURVE",
"225 -166 CURVE SMOOTH",
"356 -164 OFFCURVE",
"438 -80 OFFCURVE",
"438 108 CURVE SMOOTH",
"438 1500 LINE",
"173 1500 LINE",
"173 98 LINE SMOOTH",
"173 61 OFFCURVE",
"158 34 OFFCURVE",
"110 31 CURVE SMOOTH",
"93 30 OFFCURVE",
"69 32 OFFCURVE",
"65 32 CURVE",
"65 -150 LINE"
);
}
);
width = 568;
}
);
unicode = 0237;
},
{
glyphname = k;
layers = (
{
anchors = (
{
name = bottom;
position = "{469, 0}";
}
);
layerId = "7DA9E391-A28A-4B33-B824-B8724EAC872C";
name = "Regular Condensed";
paths = (
{
closed = 1;
nodes = (
"669 0 LINE",
"939 0 LINE",
"633 762 LINE",
"922 1500 LINE",
"653 1500 LINE",
"377 765 LINE"
);
},
{
closed = 1;
nodes = (
"132 0 LINE",
"397 0 LINE",
"397 1775 LINE",
"132 1775 LINE"
);
}
);
width = 937;
}
);
leftKerningGroup = k;
rightKerningGroup = k;
unicode = 006B;
},
{
glyphname = kgreenlandic;
layers = (
{
layerId = "7DA9E391-A28A-4B33-B824-B8724EAC872C";
name = "Regular Condensed";
paths = (
{
closed = 1;
nodes = (
"669 0 LINE",
"939 0 LINE",
"633 762 LINE",
"922 1500 LINE",
"653 1500 LINE",
"377 765 LINE"
);
},
{
closed = 1;
nodes = (
"132 0 LINE",
"397 0 LINE",
"397 1499 LINE",
"132 1499 LINE"
);
}
);
width = 937;
}
);
unicode = 0138;
},
{
glyphname = l;
layers = (
{
anchors = (
{
name = bottom;
position = "{267, 0}";
},
{
name = top;
position = "{267, 1760}";
},
{
name = topright;
position = "{528, 1500}";
}
);
layerId = "7DA9E391-A28A-4B33-B824-B8724EAC872C";
name = "Regular Condensed";
paths = (
{
closed = 1;
nodes = (
"135 0 LINE",
"399 0 LINE",
"399 1775 LINE",
"135 1775 LINE"
);
}
);
width = 534;
}
);
leftKerningGroup = l;
rightKerningGroup = l;
unicode = 006C;
},
{
glyphname = lslash;
layers = (
{
components = (
{
name = l;
transform = "{1, 0, 0, 1, 41, 0}";
}
);
layerId = "7DA9E391-A28A-4B33-B824-B8724EAC872C";
name = "Regular Condensed";
paths = (
{
closed = 1;
nodes = (
"591 960 LINE",
"591 1153 LINE",
"49 921 LINE",
"49 728 LINE"
);
}
);
width = 648;
}
);
unicode = 0142;
},
{
glyphname = m;
layers = (
{
anchors = (
{
name = top;
position = "{831, 1500}";
}
);
layerId = "7DA9E391-A28A-4B33-B824-B8724EAC872C";
name = "Regular Condensed";
paths = (
{
closed = 1;
nodes = (
"132 0 LINE",
"397 0 LINE",
"397 1124 LINE SMOOTH",
"397 1220 OFFCURVE",
"435 1301 OFFCURVE",
"527 1301 CURVE SMOOTH",
"597 1301 OFFCURVE",
"625 1243 OFFCURVE",
"625 1154 CURVE SMOOTH",
"625 0 LINE",
"890 0 LINE",
"890 1148 LINE SMOOTH",
"890 1426 OFFCURVE",
"790 1518 OFFCURVE",
"637 1518 CURVE SMOOTH",
"502 1518 OFFCURVE",
"426 1443 OFFCURVE",
"397 1337 CURVE",
"397 1500 LINE",
"132 1500 LINE"
);
},
{
closed = 1;
nodes = (
"1118 0 LINE",
"1382 0 LINE",
"1382 1149 LINE SMOOTH",
"1382 1380 OFFCURVE",
"1309 1518 OFFCURVE",
"1114 1518 CURVE SMOOTH",
"986 1518 OFFCURVE",
"904 1456 OFFCURVE",
"854 1358 CURVE SMOOTH",
"890 1138 LINE",
"890 1245 OFFCURVE",
"937 1301 OFFCURVE",
"1017 1301 CURVE SMOOTH",
"1080 1301 OFFCURVE",
"1118 1259 OFFCURVE",
"1118 1152 CURVE SMOOTH"
);
}
);
width = 1505;
}
);
leftKerningGroup = m;
rightKerningGroup = m;
unicode = 006D;
},
{
glyphname = n;
layers = (
{
anchors = (
{
name = bottom;
position = "{510, 0}";
},
{
name = top;
position = "{510, 1500}";
}
);
layerId = "7DA9E391-A28A-4B33-B824-B8724EAC872C";
name = "Regular Condensed";
paths = (
{
closed = 1;
nodes = (
"132 0 LINE",
"397 0 LINE",
"397 1127 LINE SMOOTH",
"397 1232 OFFCURVE",
"440 1304 OFFCURVE",
"523 1304 CURVE SMOOTH",
"591 1304 OFFCURVE",
"633 1252 OFFCURVE",
"633 1165 CURVE SMOOTH",
"633 0 LINE",
"898 0 LINE",
"898 1181 LINE SMOOTH",
"898 1399 OFFCURVE",
"811 1518 OFFCURVE",
"638 1518 CURVE SMOOTH",
"514 1518 OFFCURVE",
"423 1430 OFFCURVE",
"397 1328 CURVE",
"397 1500 LINE",
"132 1500 LINE"
);
}
);
width = 1020;
}
);
leftKerningGroup = n;
rightKerningGroup = n;
unicode = 006E;
},
{
glyphname = o;
layers = (
{
anchors = (
{
name = top;
position = "{485, 1500}";
}
);
layerId = "7DA9E391-A28A-4B33-B824-B8724EAC872C";
name = "Regular Condensed";
paths = (
{
closed = 1;
nodes = (
"593 284 OFFCURVE",
"575 196 OFFCURVE",
"486 196 CURVE SMOOTH",
"395 196 OFFCURVE",
"377 284 OFFCURVE",
"377 413 CURVE SMOOTH",
"377 1084 LINE SMOOTH",
"377 1219 OFFCURVE",
"396 1304 OFFCURVE",
"486 1304 CURVE SMOOTH",
"572 1304 OFFCURVE",
"593 1219 OFFCURVE",
"593 1084 CURVE SMOOTH",
"593 413 LINE SMOOTH"
);
},
{
closed = 1;
nodes = (
"110 165 OFFCURVE",
"197 -18 OFFCURVE",
"486 -18 CURVE SMOOTH",
"778 -18 OFFCURVE",
"860 170 OFFCURVE",
"860 476 CURVE SMOOTH",
"860 1037 LINE SMOOTH",
"860 1320 OFFCURVE",
"762 1518 OFFCURVE",
"486 1518 CURVE SMOOTH",
"211 1518 OFFCURVE",
"110 1319 OFFCURVE",
"110 1037 CURVE SMOOTH",
"110 476 LINE SMOOTH"
);
}
);
width = 970;
}
);
leftKerningGroup = o;
rightKerningGroup = o;
unicode = 006F;
},
{
glyphname = oslash;
layers = (
{
anchors = (
{
name = top;
position = "{443, 1500}";
}
);
components = (
{
name = o;
transform = "{1, 0, 0, 1, 0, 0}";
}
);
layerId = "7DA9E391-A28A-4B33-B824-B8724EAC872C";
name = "Regular Condensed";
paths = (
{
closed = 1;
nodes = (
"284 -173 LINE",
"794 1644 LINE",
"693 1672 LINE",
"184 -145 LINE"
);
}
);
width = 879;
}
);
unicode = 00F8;
},
{
glyphname = oe;
layers = (
{
anchors = (
{
name = top;
position = "{757, 0}";
}
);
layerId = "7DA9E391-A28A-4B33-B824-B8724EAC872C";
name = "Regular Condensed";
paths = (
{
closed = 1;
nodes = (
"88 167 OFFCURVE",
"181 -18 OFFCURVE",
"470 -18 CURVE SMOOTH",
"577 -18 OFFCURVE",
"656 21 OFFCURVE",
"715 85 CURVE",
"769 21 OFFCURVE",
"845 -18 OFFCURVE",
"951 -18 CURVE SMOOTH",
"1262 -18 OFFCURVE",
"1323 177 OFFCURVE",
"1323 499 CURVE SMOOTH",
"1323 569 LINE",
"1059 569 LINE",
"1060 566 OFFCURVE",
"1060 494 OFFCURVE",
"1060 464 CURVE SMOOTH",
"1060 323 OFFCURVE",
"1059 196 OFFCURVE",
"957 196 CURVE SMOOTH",
"855 196 OFFCURVE",
"846 291 OFFCURVE",
"846 437 CURVE SMOOTH",
"846 443 OFFCURVE",
"846 726 OFFCURVE",
"846 726 CURVE",
"1323 726 LINE",
"1325 752 OFFCURVE",
"1325 1053 OFFCURVE",
"1325 1053 CURVE SMOOTH",
"1325 1340 OFFCURVE",
"1243 1518 OFFCURVE",
"963 1518 CURVE SMOOTH",
"854 1518 OFFCURVE",
"773 1478 OFFCURVE",
"715 1410 CURVE",
"654 1478 OFFCURVE",
"574 1518 OFFCURVE",
"470 1518 CURVE SMOOTH",
"195 1518 OFFCURVE",
"88 1319 OFFCURVE",
"88 1037 CURVE SMOOTH",
"88 478 LINE SMOOTH"
);
},
{
closed = 1;
nodes = (
"580 284 OFFCURVE",
"558 196 OFFCURVE",
"470 196 CURVE SMOOTH",
"378 196 OFFCURVE",
"358 284 OFFCURVE",
"358 413 CURVE SMOOTH",
"358 1084 LINE SMOOTH",
"358 1219 OFFCURVE",
"380 1304 OFFCURVE",
"470 1304 CURVE SMOOTH",
"556 1304 OFFCURVE",
"580 1219 OFFCURVE",
"580 1084 CURVE SMOOTH",
"580 413 LINE SMOOTH"
);
},
{
closed = 1;
nodes = (
"847 906 LINE",
"847 919 OFFCURVE",
"846 1047 OFFCURVE",
"846 1059 CURVE SMOOTH",
"846 1195 OFFCURVE",
"855 1309 OFFCURVE",
"961 1309 CURVE SMOOTH",
"1046 1309 OFFCURVE",
"1060 1229 OFFCURVE",
"1060 1079 CURVE SMOOTH",
"1060 906 LINE"
);
}
);
width = 1619;
}
);
unicode = 0153;
},
{
glyphname = p;
layers = (
{
layerId = "7DA9E391-A28A-4B33-B824-B8724EAC872C";
name = "Regular Condensed";
paths = (
{
closed = 1;
nodes = (
"132 -285 LINE",
"397 -285 LINE",
"397 91 LINE",
"435 33 OFFCURVE",
"505 -18 OFFCURVE",
"587 -18 CURVE SMOOTH",
"851 -18 OFFCURVE",
"888 212 OFFCURVE",
"888 501 CURVE SMOOTH",
"888 1048 LINE SMOOTH",
"888 1312 OFFCURVE",
"843 1515 OFFCURVE",
"613 1515 CURVE SMOOTH",
"529 1515 OFFCURVE",
"436 1463 OFFCURVE",
"397 1365 CURVE",
"397 1500 LINE",
"132 1500 LINE"
);
},
{
closed = 1;
nodes = (
"621 287 OFFCURVE",
"603 197 OFFCURVE",
"514 197 CURVE SMOOTH",
"417 197 OFFCURVE",
"397 285 OFFCURVE",
"397 439 CURVE SMOOTH",
"397 1073 LINE SMOOTH",
"397 1259 OFFCURVE",
"442 1304 OFFCURVE",
"516 1304 CURVE SMOOTH",
"611 1304 OFFCURVE",
"621 1202 OFFCURVE",
"621 1072 CURVE SMOOTH",
"621 450 LINE SMOOTH"
);
}
);
width = 998;
}
);
leftKerningGroup = p;
rightKerningGroup = p;
unicode = 0070;
},
{
glyphname = thorn;
layers = (
{
layerId = "7DA9E391-A28A-4B33-B824-B8724EAC872C";
name = "Regular Condensed";
paths = (
{
closed = 1;
nodes = (
"133 -285 LINE",
"399 -285 LINE",
"399 91 LINE",
"437 33 OFFCURVE",
"504 -18 OFFCURVE",
"586 -18 CURVE SMOOTH",
"850 -18 OFFCURVE",
"885 212 OFFCURVE",
"885 501 CURVE SMOOTH",
"885 1048 LINE SMOOTH",
"885 1312 OFFCURVE",
"842 1515 OFFCURVE",
"612 1515 CURVE SMOOTH",
"528 1515 OFFCURVE",
"438 1463 OFFCURVE",
"399 1365 CURVE",
"399 1775 LINE",
"133 1775 LINE"
);
},
{
closed = 1;
nodes = (
"620 288 OFFCURVE",
"604 198 OFFCURVE",
"515 198 CURVE SMOOTH",
"418 198 OFFCURVE",
"399 286 OFFCURVE",
"399 440 CURVE SMOOTH",
"399 1070 LINE SMOOTH",
"399 1256 OFFCURVE",
"442 1301 OFFCURVE",
"517 1301 CURVE SMOOTH",
"611 1301 OFFCURVE",
"620 1199 OFFCURVE",
"620 1069 CURVE SMOOTH",
"620 451 LINE SMOOTH"
);
}
);
width = 1000;
}
);
unicode = 00FE;
},
{
glyphname = q;
layers = (
{
layerId = "7DA9E391-A28A-4B33-B824-B8724EAC872C";
name = "Regular Condensed";
paths = (
{
closed = 1;
nodes = (
"597 -285 LINE",
"862 -285 LINE",
"862 1500 LINE",
"597 1500 LINE",
"597 1386 LINE",
"558 1476 OFFCURVE",
"473 1515 OFFCURVE",
"389 1515 CURVE SMOOTH",
"171 1515 OFFCURVE",
"110 1311 OFFCURVE",
"110 1048 CURVE SMOOTH",
"110 481 LINE SMOOTH",
"110 194 OFFCURVE",
"163 -18 OFFCURVE",
"411 -18 CURVE SMOOTH",
"494 -18 OFFCURVE",
"570 37 OFFCURVE",
"597 102 CURVE"
);
},
{
closed = 1;
nodes = (
"597 252 OFFCURVE",
"562 196 OFFCURVE",
"478 196 CURVE SMOOTH",
"384 196 OFFCURVE",
"376 299 OFFCURVE",
"376 436 CURVE SMOOTH",
"376 1058 LINE SMOOTH",
"376 1213 OFFCURVE",
"390 1303 OFFCURVE",
"481 1303 CURVE SMOOTH",
"569 1303 OFFCURVE",
"597 1226 OFFCURVE",
"597 1063 CURVE SMOOTH",
"597 429 LINE SMOOTH"
);
}
);
width = 991;
}
);
unicode = 0071;
},
{
glyphname = r;
layers = (
{
anchors = (
{
name = bottom;
position = "{322, 0}";
},
{
name = top;
position = "{392, 1500}";
}
);
layerId = "7DA9E391-A28A-4B33-B824-B8724EAC872C";
name = "Regular Condensed";
paths = (
{
closed = 1;
nodes = (
"132 0 LINE",
"399 0 LINE",
"399 1190 LINE",
"434 1263 OFFCURVE",
"564 1294 OFFCURVE",
"657 1294 CURVE",
"657 1294 OFFCURVE",
"659 1518 OFFCURVE",
"654 1518 CURVE SMOOTH",
"521 1518 OFFCURVE",
"433 1449 OFFCURVE",
"399 1333 CURVE",
"399 1500 LINE",
"132 1500 LINE"
);
}
);
width = 688;
}
);
leftKerningGroup = r;
rightKerningGroup = r;
unicode = 0072;
},
{
glyphname = s;
layers = (
{
anchors = (
{
name = bottom;
position = "{429, 0}";
},
{
name = top;
position = "{452, 1500}";
}
);
layerId = "7DA9E391-A28A-4B33-B824-B8724EAC872C";
name = "Regular Condensed";
paths = (
{
closed = 1;
nodes = (
"87 109 OFFCURVE",
"203 -19 OFFCURVE",
"444 -19 CURVE SMOOTH",
"691 -19 OFFCURVE",
"801 113 OFFCURVE",
"801 365 CURVE SMOOTH",
"801 535 OFFCURVE",
"729 677 OFFCURVE",
"582 814 CURVE SMOOTH",
"440 943 LINE SMOOTH",
"366 1014 OFFCURVE",
"333 1088 OFFCURVE",
"334 1168 CURVE SMOOTH",
"337 1267 OFFCURVE",
"369 1301 OFFCURVE",
"439 1301 CURVE SMOOTH",
"512 1301 OFFCURVE",
"538 1232 OFFCURVE",
"538 1100 CURVE SMOOTH",
"538 1001 LINE",
"775 1001 LINE",
"775 1083 LINE SMOOTH",
"775 1402 OFFCURVE",
"665 1518 OFFCURVE",
"437 1518 CURVE SMOOTH",
"203 1518 OFFCURVE",
"82 1404 OFFCURVE",
"82 1150 CURVE SMOOTH",
"82 993 OFFCURVE",
"143 866 OFFCURVE",
"267 753 CURVE SMOOTH",
"287 734 OFFCURVE",
"393 640 OFFCURVE",
"402 631 CURVE SMOOTH",
"497 543 OFFCURVE",
"540 453 OFFCURVE",
"540 353 CURVE SMOOTH",
"540 238 OFFCURVE",
"508 197 OFFCURVE",
"438 197 CURVE SMOOTH",
"366 197 OFFCURVE",
"336 266 OFFCURVE",
"336 397 CURVE SMOOTH",
"336 518 LINE",
"87 518 LINE",
"87 421 LINE SMOOTH"
);
}
);
width = 856;
}
);
leftKerningGroup = s;
rightKerningGroup = s;
unicode = 0073;
},
{
glyphname = germandbls;
layers = (
{
layerId = "7DA9E391-A28A-4B33-B824-B8724EAC872C";
name = "Regular Condensed";
paths = (
{
closed = 1;
nodes = (
"135 0 LINE",
"400 0 LINE",
"400 1438 LINE SMOOTH",
"400 1530 OFFCURVE",
"439 1562 OFFCURVE",
"517 1562 CURVE SMOOTH",
"604 1562 OFFCURVE",
"635 1530 OFFCURVE",
"635 1438 CURVE SMOOTH",
"635 1170 LINE SMOOTH",
"635 1076 OFFCURVE",
"604 1032 OFFCURVE",
"498 1032 CURVE",
"498 832 LINE",
"648 832 OFFCURVE",
"695 789 OFFCURVE",
"695 656 CURVE SMOOTH",
"695 395 LINE SMOOTH",
"695 246 OFFCURVE",
"649 212 OFFCURVE",
"489 212 CURVE",
"489 0 LINE",
"593 0 LINE SMOOTH",
"893 0 OFFCURVE",
"956 177 OFFCURVE",
"956 476 CURVE SMOOTH",
"956 553 LINE SMOOTH",
"956 781 OFFCURVE",
"907 905 OFFCURVE",
"737 945 CURVE",
"855 983 OFFCURVE",
"896 1066 OFFCURVE",
"896 1220 CURVE SMOOTH",
"896 1417 LINE SMOOTH",
"896 1688 OFFCURVE",
"774 1781 OFFCURVE",
"511 1781 CURVE SMOOTH",
"228 1781 OFFCURVE",
"135 1660 OFFCURVE",
"135 1417 CURVE SMOOTH"
);
}
);
width = 1032;
}
);
unicode = 00DF;
},
{
glyphname = t;
layers = (
{
anchors = (
{
name = bottom;
position = "{370, 0}";
},
{
name = center;
position = "{323, 0}";
}
);
layerId = "7DA9E391-A28A-4B33-B824-B8724EAC872C";
name = "Regular Condensed";
paths = (
{
closed = 1;
nodes = (
"169 60 OFFCURVE",
"212 -10 OFFCURVE",
"405 -10 CURVE SMOOTH",
"585 -10 LINE",
"585 192 LINE",
"457 192 OFFCURVE",
"434 204 OFFCURVE",
"434 275 CURVE SMOOTH",
"434 1277 LINE",
"580 1277 LINE",
"580 1469 LINE",
"434 1469 LINE",
"434 1761 LINE",
"169 1761 LINE",
"169 1469 LINE",
"47 1469 LINE",
"47 1277 LINE",
"169 1277 LINE",
"169 229 LINE SMOOTH"
);
}
);
width = 645;
}
);
leftKerningGroup = t;
rightKerningGroup = t;
unicode = 0074;
},
{
glyphname = u;
layers = (
{
anchors = (
{
name = ogonek;
position = "{914, 10}";
},
{
name = top;
position = "{517, 1500}";
}
);
layerId = "7DA9E391-A28A-4B33-B824-B8724EAC872C";
name = "Regular Condensed";
paths = (
{
closed = 1;
nodes = (
"122 101 OFFCURVE",
"211 -19 OFFCURVE",
"389 -19 CURVE SMOOTH",
"516 -19 OFFCURVE",
"581 54 OFFCURVE",
"618 156 CURVE",
"618 0 LINE",
"883 0 LINE",
"883 1500 LINE",
"619 1500 LINE",
"618 379 LINE SMOOTH",
"618 284 OFFCURVE",
"590 199 OFFCURVE",
"497 199 CURVE SMOOTH",
"408 199 OFFCURVE",
"388 266 OFFCURVE",
"388 381 CURVE SMOOTH",
"388 1500 LINE",
"122 1500 LINE",
"122 340 LINE SMOOTH"
);
}
);
width = 1015;
}
);
leftKerningGroup = u;
rightKerningGroup = u;
unicode = 0075;
},
{
glyphname = v;
layers = (
{
layerId = "7DA9E391-A28A-4B33-B824-B8724EAC872C";
name = "Regular Condensed";
paths = (
{
closed = 1;
nodes = (
"255 0 LINE",
"580 0 LINE",
"797 1500 LINE",
"549 1500 LINE",
"466 703 LINE",
"438 343 LINE",
"418 343 LINE",
"385 702 LINE",
"288 1500 LINE",
"38 1500 LINE"
);
}
);
width = 834;
}
);
unicode = 0076;
},
{
glyphname = w;
layers = (
{
anchors = (
{
name = top;
position = "{630, 1500}";
}
);
layerId = "7DA9E391-A28A-4B33-B824-B8724EAC872C";
name = "Regular Condensed";
paths = (
{
closed = 1;
nodes = (
"245 0 LINE",
"469 0 LINE",
"684 1500 LINE",
"505 1500 LINE",
"416 868 LINE",
"383 545 LINE",
"377 545 LINE",
"343 867 LINE",
"267 1500 LINE",
"44 1500 LINE"
);
},
{
closed = 1;
nodes = (
"783 0 LINE",
"1015 0 LINE",
"1205 1500 LINE",
"983 1500 LINE",
"916 879 LINE",
"887 545 LINE",
"881 545 LINE",
"839 880 LINE",
"741 1500 LINE",
"580 1500 LINE"
);
}
);
width = 1251;
}
);
leftKerningGroup = w;
rightKerningGroup = w;
unicode = 0077;
},
{
glyphname = x;
layers = (
{
layerId = "7DA9E391-A28A-4B33-B824-B8724EAC872C";
name = "Regular Condensed";
paths = (
{
closed = 1;
nodes = (
"17 0 LINE",
"262 0 LINE",
"485 721 LINE",
"523 721 LINE",
"789 1500 LINE",
"555 1500 LINE",
"341 797 LINE",
"289 797 LINE"
);
},
{
closed = 1;
nodes = (
"558 0 LINE",
"804 0 LINE",
"269 1500 LINE",
"34 1500 LINE"
);
}
);
width = 820;
}
);
unicode = 0078;
},
{
glyphname = y;
layers = (
{
anchors = (
{
name = top;
position = "{431, 1500}";
}
);
layerId = "7DA9E391-A28A-4B33-B824-B8724EAC872C";
name = "Regular Condensed";
paths = (
{
closed = 1;
nodes = (
"88 -265 LINE",
"370 -265 LINE SMOOTH",
"509 -265 OFFCURVE",
"545 -207 OFFCURVE",
"567 -64 CURVE SMOOTH",
"827 1501 LINE",
"576 1501 LINE",
"488 733 LINE",
"452 329 LINE",
"430 329 LINE",
"390 733 LINE",
"294 1501 LINE",
"42 1501 LINE",
"282 68 LINE SMOOTH",
"288 28 OFFCURVE",
"293 -25 OFFCURVE",
"283 -42 CURVE SMOOTH",
"278 -76 OFFCURVE",
"234 -82 OFFCURVE",
"175 -82 CURVE SMOOTH",
"88 -82 LINE"
);
}
);
width = 852;
}
);
leftKerningGroup = y;
rightKerningGroup = y;
unicode = 0079;
},
{
glyphname = z;
layers = (
{
anchors = (
{
name = top;
position = "{411, 1500}";
}
);
layerId = "7DA9E391-A28A-4B33-B824-B8724EAC872C";
name = "Regular Condensed";
paths = (
{
closed = 1;
nodes = (
"70 0 LINE",
"655 0 LINE",
"655 222 LINE",
"341 222 LINE",
"669 1309 LINE",
"669 1500 LINE",
"95 1500 LINE",
"95 1273 LINE",
"400 1273 LINE",
"70 200 LINE"
);
}
);
width = 727;
}
);
leftKerningGroup = z;
rightKerningGroup = z;
unicode = 007A;
},
{
glyphname = uniFB01;
lastChange = "2013-01-02 14:35:13 +0000";
layers = (
{
layerId = "7DA9E391-A28A-4B33-B824-B8724EAC872C";
name = "Regular Condensed";
paths = (
{
closed = 1;
nodes = (
"438 1500 LINE",
"438 1558 LINE SMOOTH",
"438 1616 OFFCURVE",
"462 1644 OFFCURVE",
"530 1644 CURVE SMOOTH",
"548 1644 OFFCURVE",
"568 1643 OFFCURVE",
"590 1640 CURVE",
"590 1806 LINE",
"574 1812 OFFCURVE",
"507 1831 OFFCURVE",
"425 1831 CURVE SMOOTH",
"264 1831 OFFCURVE",
"174 1734 OFFCURVE",
"174 1566 CURVE SMOOTH",
"174 1500 LINE",
"57 1500 LINE",
"57 1309 LINE",
"173 1309 LINE",
"173 0 LINE",
"438 0 LINE",
"438 1309 LINE",
"773 1309 LINE",
"773 0 LINE",
"1038 0 LINE",
"1038 1500 LINE"
);
},
{
closed = 1;
nodes = (
"773 1800 LINE",
"773 1607 LINE",
"1038 1607 LINE",
"1038 1800 LINE"
);
}
);
width = 1171;
}
);
unicode = FB01;
},
{
glyphname = uniFB02;
lastChange = "2013-01-02 14:36:36 +0000";
layers = (
{
layerId = "7DA9E391-A28A-4B33-B824-B8724EAC872C";
name = "Regular Condensed";
paths = (
{
closed = 1;
nodes = (
"793 1779 OFFCURVE",
"619 1798 OFFCURVE",
"493 1798 CURVE SMOOTH",
"195 1798 OFFCURVE",
"174 1689 OFFCURVE",
"174 1519 CURVE SMOOTH",
"174 1441 LINE",
"57 1441 LINE",
"57 1250 LINE",
"173 1250 LINE",
"173 0 LINE",
"438 0 LINE",
"438 1250 LINE",
"590 1250 LINE",
"590 1441 LINE",
"438 1441 LINE",
"438 1511 LINE SMOOTH",
"438 1554 OFFCURVE",
"430 1622 OFFCURVE",
"568 1622 CURVE SMOOTH",
"616 1622 OFFCURVE",
"682 1613 OFFCURVE",
"772 1593 CURVE",
"772 0 LINE",
"1036 0 LINE",
"1036 1737 LINE"
);
}
);
width = 1171;
}
);
unicode = FB02;
},
{
glyphname = uniFB00;
lastChange = "2013-01-02 14:37:04 +0000";
layers = (
{
layerId = "7DA9E391-A28A-4B33-B824-B8724EAC872C";
name = "Regular Condensed";
paths = (
{
closed = 1;
nodes = (
"1227 1759 LINE",
"1211 1765 OFFCURVE",
"1144 1784 OFFCURVE",
"1062 1784 CURVE SMOOTH",
"901 1784 OFFCURVE",
"811 1687 OFFCURVE",
"811 1519 CURVE SMOOTH",
"811 1441 LINE",
"438 1441 LINE",
"438 1511 LINE SMOOTH",
"438 1569 OFFCURVE",
"462 1597 OFFCURVE",
"530 1597 CURVE SMOOTH",
"548 1597 OFFCURVE",
"568 1596 OFFCURVE",
"590 1593 CURVE",
"590 1759 LINE",
"574 1765 OFFCURVE",
"507 1784 OFFCURVE",
"425 1784 CURVE SMOOTH",
"264 1784 OFFCURVE",
"174 1687 OFFCURVE",
"174 1519 CURVE SMOOTH",
"174 1441 LINE",
"57 1441 LINE",
"57 1250 LINE",
"173 1250 LINE",
"173 0 LINE",
"438 0 LINE",
"438 1250 LINE",
"810 1250 LINE",
"810 0 LINE",
"1075 0 LINE",
"1075 1250 LINE",
"1227 1250 LINE",
"1227 1441 LINE",
"1075 1441 LINE",
"1075 1511 LINE SMOOTH",
"1075 1569 OFFCURVE",
"1099 1597 OFFCURVE",
"1167 1597 CURVE SMOOTH",
"1185 1597 OFFCURVE",
"1205 1596 OFFCURVE",
"1227 1593 CURVE"
);
}
);
width = 1274;
}
);
},
{
glyphname = uniFB03;
lastChange = "2013-01-02 14:37:57 +0000";
layers = (
{
layerId = "7DA9E391-A28A-4B33-B824-B8724EAC872C";
name = "Regular Condensed";
paths = (
{
closed = 1;
nodes = (
"1075 1500 LINE",
"1075 1563 LINE SMOOTH",
"1075 1621 OFFCURVE",
"1099 1649 OFFCURVE",
"1167 1649 CURVE SMOOTH",
"1185 1649 OFFCURVE",
"1205 1648 OFFCURVE",
"1227 1645 CURVE",
"1227 1811 LINE",
"1211 1817 OFFCURVE",
"1144 1836 OFFCURVE",
"1062 1836 CURVE SMOOTH",
"901 1836 OFFCURVE",
"811 1739 OFFCURVE",
"811 1571 CURVE SMOOTH",
"811 1500 LINE",
"438 1500 LINE",
"438 1563 LINE SMOOTH",
"438 1621 OFFCURVE",
"462 1649 OFFCURVE",
"530 1649 CURVE SMOOTH",
"548 1649 OFFCURVE",
"568 1648 OFFCURVE",
"590 1645 CURVE",
"590 1811 LINE",
"574 1817 OFFCURVE",
"507 1836 OFFCURVE",
"425 1836 CURVE SMOOTH",
"264 1836 OFFCURVE",
"174 1739 OFFCURVE",
"174 1571 CURVE SMOOTH",
"174 1500 LINE",
"57 1500 LINE",
"57 1309 LINE",
"173 1309 LINE",
"173 0 LINE",
"438 0 LINE",
"438 1309 LINE",
"810 1309 LINE",
"810 0 LINE",
"1075 0 LINE",
"1075 1309 LINE",
"1410 1309 LINE",
"1410 0 LINE",
"1675 0 LINE",
"1675 1500 LINE"
);
},
{
closed = 1;
nodes = (
"1410 1800 LINE",
"1410 1607 LINE",
"1675 1607 LINE",
"1675 1800 LINE"
);
}
);
width = 1808;
}
);
},
{
glyphname = uniFB04;
lastChange = "2013-01-02 14:38:31 +0000";
layers = (
{
layerId = "7DA9E391-A28A-4B33-B824-B8724EAC872C";
name = "Regular Condensed";
paths = (
{
closed = 1;
nodes = (
"811 1441 LINE",
"438 1441 LINE",
"438 1511 LINE SMOOTH",
"438 1569 OFFCURVE",
"462 1597 OFFCURVE",
"530 1597 CURVE SMOOTH",
"548 1597 OFFCURVE",
"568 1596 OFFCURVE",
"590 1593 CURVE",
"590 1759 LINE",
"574 1765 OFFCURVE",
"507 1784 OFFCURVE",
"425 1784 CURVE SMOOTH",
"264 1784 OFFCURVE",
"174 1687 OFFCURVE",
"174 1519 CURVE SMOOTH",
"174 1441 LINE",
"57 1441 LINE",
"57 1250 LINE",
"173 1250 LINE",
"173 0 LINE",
"438 0 LINE",
"438 1250 LINE",
"810 1250 LINE",
"810 0 LINE",
"1075 0 LINE",
"1075 1250 LINE",
"1227 1250 LINE",
"1227 1441 LINE",
"1075 1441 LINE",
"1075 1511 LINE SMOOTH",
"1075 1554 OFFCURVE",
"1067 1622 OFFCURVE",
"1205 1622 CURVE SMOOTH",
"1253 1622 OFFCURVE",
"1319 1613 OFFCURVE",
"1409 1593 CURVE",
"1409 0 LINE",
"1673 0 LINE",
"1673 1737 LINE",
"1430 1779 OFFCURVE",
"1256 1798 OFFCURVE",
"1130 1798 CURVE SMOOTH",
"832 1798 OFFCURVE",
"811 1689 OFFCURVE",
"811 1519 CURVE SMOOTH"
);
}
);
width = 1808;
}
);
},
{
glyphname = Delta;
layers = (
{
layerId = "7DA9E391-A28A-4B33-B824-B8724EAC872C";
name = "Regular Condensed";
paths = (
{
closed = 1;
nodes = (
"376 230 LINE",
"443 1044 LINE",
"475 1044 LINE",
"542 230 LINE"
);
},
{
closed = 1;
nodes = (
"34 0 LINE",
"887 0 LINE",
"708 1353 LINE",
"217 1353 LINE"
);
}
);
width = 921;
}
);
unicode = 0394;
},
{
glyphname = uni03A9;
layers = (
{
anchors = (
{
name = topleft;
position = "{20, 0}";
}
);
layerId = "7DA9E391-A28A-4B33-B824-B8724EAC872C";
name = "Regular Condensed";
paths = (
{
closed = 1;
nodes = (
"47 0 LINE",
"463 0 LINE",
"463 247 LINE",
"399 282 OFFCURVE",
"411 441 OFFCURVE",
"411 581 CURVE SMOOTH",
"411 1211 LINE SMOOTH",
"411 1281 OFFCURVE",
"427 1335 OFFCURVE",
"496 1335 CURVE SMOOTH",
"565 1335 OFFCURVE",
"581 1281 OFFCURVE",
"581 1211 CURVE SMOOTH",
"581 581 LINE SMOOTH",
"581 431 OFFCURVE",
"604 285 OFFCURVE",
"529 247 CURVE",
"529 0 LINE",
"945 0 LINE",
"945 246 LINE",
"823 246 LINE",
"888 345 OFFCURVE",
"920 499 OFFCURVE",
"920 710 CURVE SMOOTH",
"920 1189 LINE SMOOTH",
"920 1462 OFFCURVE",
"774 1607 OFFCURVE",
"496 1607 CURVE SMOOTH",
"218 1607 OFFCURVE",
"72 1462 OFFCURVE",
"72 1189 CURVE SMOOTH",
"72 710 LINE SMOOTH",
"72 499 OFFCURVE",
"104 345 OFFCURVE",
"169 246 CURVE",
"47 246 LINE"
);
}
);
width = 992;
}
);
unicode = 03A9;
},
{
glyphname = mu;
lastChange = "2013-01-02 14:39:28 +0000";
layers = (
{
layerId = "7DA9E391-A28A-4B33-B824-B8724EAC872C";
name = "Regular Condensed";
paths = (
{
closed = 1;
nodes = (
"619 1500 LINE",
"619 379 LINE SMOOTH",
"618 284 OFFCURVE",
"590 199 OFFCURVE",
"497 199 CURVE SMOOTH",
"408 199 OFFCURVE",
"388 266 OFFCURVE",
"388 381 CURVE SMOOTH",
"388 1500 LINE",
"122 1500 LINE",
"122 -186 LINE",
"379 -186 LINE",
"379 -19 LINE",
"389 -19 LINE SMOOTH",
"516 -19 OFFCURVE",
"581 54 OFFCURVE",
"618 156 CURVE",
"618 0 LINE",
"883 0 LINE",
"883 1500 LINE"
);
}
);
width = 1022;
}
);
unicode = 03BC;
},
{
glyphname = ordfeminine;
layers = (
{
layerId = "7DA9E391-A28A-4B33-B824-B8724EAC872C";
name = "Regular Condensed";
paths = (
{
closed = 1;
nodes = (
"168 513 OFFCURVE",
"223 385 OFFCURVE",
"386 385 CURVE SMOOTH",
"475 385 OFFCURVE",
"541 455 OFFCURVE",
"555 507 CURVE",
"555 397 LINE",
"767 397 LINE",
"767 1250 LINE SMOOTH",
"767 1482 OFFCURVE",
"688 1607 OFFCURVE",
"481 1607 CURVE SMOOTH",
"246 1607 OFFCURVE",
"182 1477 OFFCURVE",
"182 1259 CURVE SMOOTH",
"182 1251 OFFCURVE",
"182 1228 OFFCURVE",
"183 1223 CURVE",
"391 1223 LINE",
"391 1281 LINE SMOOTH",
"391 1391 OFFCURVE",
"407 1437 OFFCURVE",
"473 1437 CURVE SMOOTH",
"559 1437 OFFCURVE",
"553 1335 OFFCURVE",
"553 1212 CURVE SMOOTH",
"553 1170 LINE",
"318 1082 OFFCURVE",
"166 1045 OFFCURVE",
"166 788 CURVE SMOOTH",
"166 784 OFFCURVE",
"166 713 OFFCURVE",
"166 709 CURVE SMOOTH"
);
},
{
closed = 1;
nodes = (
"544 601 OFFCURVE",
"512 553 OFFCURVE",
"459 553 CURVE SMOOTH",
"401 553 OFFCURVE",
"381 600 OFFCURVE",
"381 710 CURVE SMOOTH",
"381 831 LINE SMOOTH",
"381 950 OFFCURVE",
"421 981 OFFCURVE",
"552 1037 CURVE",
"552 640 LINE"
);
}
);
width = 927;
}
);
unicode = 00AA;
},
{
glyphname = ordmasculine;
layers = (
{
layerId = "7DA9E391-A28A-4B33-B824-B8724EAC872C";
name = "Regular Condensed";
paths = (
{
closed = 1;
nodes = (
"398 552 OFFCURVE",
"375 620 OFFCURVE",
"375 725 CURVE SMOOTH",
"375 1260 LINE SMOOTH",
"375 1368 OFFCURVE",
"392 1435 OFFCURVE",
"464 1435 CURVE SMOOTH",
"533 1435 OFFCURVE",
"551 1368 OFFCURVE",
"551 1260 CURVE SMOOTH",
"551 725 LINE SMOOTH",
"551 616 OFFCURVE",
"527 550 OFFCURVE",
"464 551 CURVE SMOOTH"
);
},
{
closed = 1;
nodes = (
"159 528 OFFCURVE",
"233 381 OFFCURVE",
"464 381 CURVE SMOOTH",
"696 381 OFFCURVE",
"766 533 OFFCURVE",
"766 776 CURVE SMOOTH",
"766 1222 LINE SMOOTH",
"766 1448 OFFCURVE",
"700 1606 OFFCURVE",
"464 1606 CURVE SMOOTH",
"236 1606 OFFCURVE",
"159 1445 OFFCURVE",
"159 1222 CURVE SMOOTH",
"159 776 LINE SMOOTH"
);
}
);
width = 908;
}
);
unicode = 00BA;
},
{
glyphname = zero;
layers = (
{
layerId = "7DA9E391-A28A-4B33-B824-B8724EAC872C";
name = "Regular Condensed";
paths = (
{
closed = 1;
nodes = (
"631 247 OFFCURVE",
"577 210 OFFCURVE",
"500 210 CURVE SMOOTH",
"418 210 OFFCURVE",
"370 243 OFFCURVE",
"370 470 CURVE SMOOTH",
"370 1328 LINE SMOOTH",
"370 1527 OFFCURVE",
"432 1550 OFFCURVE",
"500 1550 CURVE SMOOTH",
"570 1550 OFFCURVE",
"631 1522 OFFCURVE",
"631 1327 CURVE SMOOTH",
"631 470 LINE SMOOTH"
);
},
{
closed = 1;
nodes = (
"103 162 OFFCURVE",
"213 -21 OFFCURVE",
"501 -21 CURVE SMOOTH",
"789 -21 OFFCURVE",
"899 162 OFFCURVE",
"899 475 CURVE SMOOTH",
"899 1316 LINE SMOOTH",
"899 1619 OFFCURVE",
"783 1781 OFFCURVE",
"501 1781 CURVE SMOOTH",
"219 1781 OFFCURVE",
"103 1619 OFFCURVE",
"103 1316 CURVE SMOOTH",
"103 475 LINE SMOOTH"
);
}
);
width = 1010;
}
);
unicode = 0030;
},
{
glyphname = one;
layers = (
{
layerId = "7DA9E391-A28A-4B33-B824-B8724EAC872C";
name = "Regular Condensed";
paths = (
{
closed = 1;
nodes = (
"258 0 LINE",
"526 0 LINE",
"526 1761 LINE",
"318 1761 LINE",
"262 1629 OFFCURVE",
"146 1556 OFFCURVE",
"40 1541 CURVE",
"40 1342 LINE",
"114 1342 OFFCURVE",
"210 1371 OFFCURVE",
"258 1428 CURVE"
);
}
);
width = 676;
}
);
unicode = 0031;
},
{
glyphname = two;
layers = (
{
layerId = "7DA9E391-A28A-4B33-B824-B8724EAC872C";
name = "Regular Condensed";
paths = (
{
closed = 1;
nodes = (
"160 0 LINE",
"821 0 LINE",
"821 210 LINE",
"415 210 LINE",
"517 642 OFFCURVE",
"854 823 OFFCURVE",
"854 1293 CURVE SMOOTH",
"854 1561 OFFCURVE",
"760 1780 OFFCURVE",
"511 1780 CURVE SMOOTH",
"189 1780 OFFCURVE",
"141 1553 OFFCURVE",
"141 1173 CURVE SMOOTH",
"141 1065 LINE",
"397 1065 LINE",
"397 1288 LINE SMOOTH",
"397 1513 OFFCURVE",
"444 1549 OFFCURVE",
"504 1549 CURVE SMOOTH",
"564 1549 OFFCURVE",
"600 1497 OFFCURVE",
"600 1304 CURVE SMOOTH",
"600 1182 OFFCURVE",
"570 1048 OFFCURVE",
"522 968 CURVE SMOOTH",
"468 891 OFFCURVE",
"367 707 OFFCURVE",
"348 679 CURVE SMOOTH",
"226 465 OFFCURVE",
"160 296 OFFCURVE",
"160 104 CURVE SMOOTH"
);
}
);
width = 951;
}
);
unicode = 0032;
},
{
glyphname = three;
layers = (
{
layerId = "7DA9E391-A28A-4B33-B824-B8724EAC872C";
name = "Regular Condensed";
paths = (
{
closed = 1;
nodes = (
"105 142 OFFCURVE",
"196 -20 OFFCURVE",
"469 -20 CURVE SMOOTH",
"758 -20 OFFCURVE",
"867 160 OFFCURVE",
"867 503 CURVE SMOOTH",
"867 720 OFFCURVE",
"822 876 OFFCURVE",
"683 941 CURVE",
"809 987 OFFCURVE",
"864 1130 OFFCURVE",
"864 1316 CURVE SMOOTH",
"864 1625 OFFCURVE",
"745 1780 OFFCURVE",
"478 1780 CURVE SMOOTH",
"204 1780 OFFCURVE",
"107 1630 OFFCURVE",
"107 1316 CURVE SMOOTH",
"107 1261 LINE",
"366 1261 LINE",
"366 1314 LINE SMOOTH",
"366 1484 OFFCURVE",
"393 1549 OFFCURVE",
"484 1549 CURVE SMOOTH",
"560 1549 OFFCURVE",
"604 1503 OFFCURVE",
"604 1316 CURVE SMOOTH",
"604 1112 OFFCURVE",
"568 1032 OFFCURVE",
"440 1032 CURVE SMOOTH",
"366 1032 LINE",
"366 828 LINE",
"442 828 LINE SMOOTH",
"574 828 OFFCURVE",
"604 734 OFFCURVE",
"604 504 CURVE SMOOTH",
"604 307 OFFCURVE",
"584 210 OFFCURVE",
"478 210 CURVE SMOOTH",
"370 210 OFFCURVE",
"356 288 OFFCURVE",
"356 467 CURVE SMOOTH",
"356 589 LINE",
"105 589 LINE",
"105 474 LINE SMOOTH"
);
}
);
width = 960;
}
);
unicode = 0033;
},
{
glyphname = four;
layers = (
{
layerId = "7DA9E391-A28A-4B33-B824-B8724EAC872C";
name = "Regular Condensed";
paths = (
{
closed = 1;
nodes = (
"524 -1 LINE",
"763 -1 LINE",
"763 310 LINE",
"899 310 LINE",
"899 526 LINE",
"763 526 LINE",
"763 1761 LINE",
"477 1761 LINE",
"90 507 LINE",
"90 310 LINE",
"524 310 LINE"
);
},
{
closed = 1;
nodes = (
"297 526 LINE",
"524 1395 LINE",
"524 526 LINE"
);
}
);
width = 951;
}
);
unicode = 0034;
},
{
glyphname = five;
layers = (
{
layerId = "7DA9E391-A28A-4B33-B824-B8724EAC872C";
name = "Regular Condensed";
paths = (
{
closed = 1;
nodes = (
"122 122 OFFCURVE",
"222 -20 OFFCURVE",
"471 -20 CURVE SMOOTH",
"807 -20 OFFCURVE",
"831 199 OFFCURVE",
"831 668 CURVE SMOOTH",
"831 1064 OFFCURVE",
"769 1246 OFFCURVE",
"557 1246 CURVE SMOOTH",
"480 1246 OFFCURVE",
"405 1213 OFFCURVE",
"380 1163 CURVE",
"380 1520 LINE",
"784 1520 LINE",
"784 1760 LINE",
"133 1760 LINE",
"133 862 LINE",
"369 852 LINE",
"369 968 OFFCURVE",
"406 1023 OFFCURVE",
"473 1023 CURVE SMOOTH",
"556 1023 OFFCURVE",
"571 947 OFFCURVE",
"571 832 CURVE SMOOTH",
"571 382 LINE SMOOTH",
"571 266 OFFCURVE",
"547 209 OFFCURVE",
"471 209 CURVE SMOOTH",
"386 209 OFFCURVE",
"373 279 OFFCURVE",
"373 371 CURVE SMOOTH",
"373 564 LINE",
"122 564 LINE",
"122 343 LINE SMOOTH"
);
}
);
width = 951;
}
);
unicode = 0035;
},
{
glyphname = six;
layers = (
{
layerId = "7DA9E391-A28A-4B33-B824-B8724EAC872C";
name = "Regular Condensed";
paths = (
{
closed = 1;
nodes = (
"102 185 OFFCURVE",
"173 -21 OFFCURVE",
"499 -21 CURVE SMOOTH",
"802 -21 OFFCURVE",
"881 152 OFFCURVE",
"881 483 CURVE SMOOTH",
"881 580 LINE SMOOTH",
"881 928 OFFCURVE",
"809 1107 OFFCURVE",
"569 1103 CURVE SMOOTH",
"484 1102 OFFCURVE",
"409 1072 OFFCURVE",
"370 1019 CURVE",
"370 1270 LINE SMOOTH",
"370 1477 OFFCURVE",
"387 1548 OFFCURVE",
"489 1548 CURVE SMOOTH",
"587 1548 OFFCURVE",
"595 1478 OFFCURVE",
"595 1281 CURVE SMOOTH",
"595 1276 OFFCURVE",
"595 1250 OFFCURVE",
"595 1245 CURVE",
"845 1245 LINE",
"845 1252 OFFCURVE",
"845 1329 OFFCURVE",
"845 1336 CURVE SMOOTH",
"843 1664 OFFCURVE",
"736 1781 OFFCURVE",
"502 1781 CURVE SMOOTH",
"232 1781 OFFCURVE",
"102 1652 OFFCURVE",
"102 1250 CURVE SMOOTH",
"102 527 LINE SMOOTH"
);
},
{
closed = 1;
nodes = (
"622 264 OFFCURVE",
"595 212 OFFCURVE",
"499 212 CURVE SMOOTH",
"400 212 OFFCURVE",
"370 289 OFFCURVE",
"370 459 CURVE SMOOTH",
"370 777 LINE",
"378 826 OFFCURVE",
"428 871 OFFCURVE",
"504 871 CURVE SMOOTH",
"594 871 OFFCURVE",
"622 796 OFFCURVE",
"622 601 CURVE SMOOTH",
"622 434 LINE SMOOTH"
);
}
);
width = 951;
}
);
unicode = 0036;
},
{
glyphname = seven;
layers = (
{
layerId = "7DA9E391-A28A-4B33-B824-B8724EAC872C";
name = "Regular Condensed";
paths = (
{
closed = 1;
nodes = (
"222 1 OFFCURVE",
"500 1 OFFCURVE",
"500 1 CURVE",
"525 406 OFFCURVE",
"612 762 OFFCURVE",
"704 1046 CURVE SMOOTH",
"779 1284 OFFCURVE",
"869 1459 OFFCURVE",
"881 1566 CURVE",
"881 1761 LINE",
"104 1761 LINE",
"104 1526 LINE",
"604 1526 LINE",
"597 1500 OFFCURVE",
"550 1382 OFFCURVE",
"493 1203 CURVE SMOOTH",
"377 875 OFFCURVE",
"243 485 OFFCURVE",
"208 1 CURVE"
);
}
);
width = 951;
}
);
unicode = 0037;
},
{
glyphname = eight;
layers = (
{
layerId = "7DA9E391-A28A-4B33-B824-B8724EAC872C";
name = "Regular Condensed";
paths = (
{
closed = 1;
nodes = (
"97 125 OFFCURVE",
"223 -21 OFFCURVE",
"479 -21 CURVE SMOOTH",
"736 -21 OFFCURVE",
"855 126 OFFCURVE",
"858 436 CURVE SMOOTH",
"858 441 OFFCURVE",
"858 551 OFFCURVE",
"858 557 CURVE SMOOTH",
"858 732 OFFCURVE",
"805 896 OFFCURVE",
"716 961 CURVE",
"816 1030 OFFCURVE",
"856 1169 OFFCURVE",
"856 1341 CURVE SMOOTH",
"856 1654 OFFCURVE",
"751 1781 OFFCURVE",
"479 1781 CURVE SMOOTH",
"212 1781 OFFCURVE",
"100 1648 OFFCURVE",
"100 1341 CURVE SMOOTH",
"100 1171 OFFCURVE",
"142 1031 OFFCURVE",
"241 961 CURVE",
"147 896 OFFCURVE",
"92 735 OFFCURVE",
"92 557 CURVE SMOOTH",
"92 550 OFFCURVE",
"92 438 OFFCURVE",
"93 431 CURVE SMOOTH"
);
},
{
closed = 1;
nodes = (
"590 280 OFFCURVE",
"580 208 OFFCURVE",
"480 208 CURVE SMOOTH",
"377 208 OFFCURVE",
"361 277 OFFCURVE",
"360 438 CURVE SMOOTH",
"360 442 OFFCURVE",
"360 582 OFFCURVE",
"360 585 CURVE SMOOTH",
"360 764 OFFCURVE",
"408 856 OFFCURVE",
"480 856 CURVE SMOOTH",
"556 856 OFFCURVE",
"590 760 OFFCURVE",
"590 586 CURVE SMOOTH",
"590 584 OFFCURVE",
"590 445 OFFCURVE",
"590 442 CURVE SMOOTH"
);
},
{
closed = 1;
nodes = (
"589 1088 OFFCURVE",
"547 1033 OFFCURVE",
"478 1033 CURVE SMOOTH",
"407 1033 OFFCURVE",
"368 1087 OFFCURVE",
"368 1315 CURVE SMOOTH",
"368 1532 OFFCURVE",
"399 1573 OFFCURVE",
"478 1573 CURVE SMOOTH",
"559 1573 OFFCURVE",
"589 1542 OFFCURVE",
"589 1317 CURVE SMOOTH"
);
}
);
width = 951;
}
);
unicode = 0038;
},
{
glyphname = nine;
layers = (
{
layerId = "7DA9E391-A28A-4B33-B824-B8724EAC872C";
name = "Regular Condensed";
paths = (
{
closed = 1;
nodes = (
"96 96 OFFCURVE",
"221 -20 OFFCURVE",
"441 -20 CURVE SMOOTH",
"711 -20 OFFCURVE",
"823 128 OFFCURVE",
"823 530 CURVE SMOOTH",
"823 1233 LINE SMOOTH",
"823 1586 OFFCURVE",
"776 1781 OFFCURVE",
"450 1781 CURVE SMOOTH",
"137 1781 OFFCURVE",
"67 1579 OFFCURVE",
"67 1248 CURVE SMOOTH",
"67 1184 LINE SMOOTH",
"67 850 OFFCURVE",
"147 664 OFFCURVE",
"394 664 CURVE SMOOTH",
"470 664 OFFCURVE",
"524 679 OFFCURVE",
"557 701 CURVE",
"557 498 LINE SMOOTH",
"557 300 OFFCURVE",
"560 210 OFFCURVE",
"460 210 CURVE SMOOTH",
"366 210 OFFCURVE",
"348 270 OFFCURVE",
"347 482 CURVE SMOOTH",
"347 486 OFFCURVE",
"347 514 OFFCURVE",
"347 519 CURVE",
"94 519 LINE",
"94 511 OFFCURVE",
"94 430 OFFCURVE",
"94 423 CURVE SMOOTH"
);
},
{
closed = 1;
nodes = (
"548 913 OFFCURVE",
"512 884 OFFCURVE",
"444 884 CURVE SMOOTH",
"351 884 OFFCURVE",
"329 956 OFFCURVE",
"329 1144 CURVE SMOOTH",
"329 1301 LINE SMOOTH",
"329 1465 OFFCURVE",
"350 1548 OFFCURVE",
"446 1548 CURVE SMOOTH",
"535 1548 OFFCURVE",
"557 1468 OFFCURVE",
"557 1304 CURVE SMOOTH",
"557 970 LINE"
);
}
);
width = 951;
}
);
unicode = 0039;
},
{
glyphname = fraction;
layers = (
{
layerId = "7DA9E391-A28A-4B33-B824-B8724EAC872C";
name = "Regular Condensed";
paths = (
{
closed = 1;
nodes = (
"57 0 LINE",
"276 0 LINE",
"746 1767 LINE",
"526 1767 LINE"
);
}
);
width = 829;
}
);
unicode = 2044;
},
{
glyphname = onehalf;
layers = (
{
layerId = "7DA9E391-A28A-4B33-B824-B8724EAC872C";
name = "Regular Condensed";
paths = (
{
closed = 1;
nodes = (
"1057 0 LINE",
"1521 0 LINE",
"1521 138 LINE",
"1245 138 LINE",
"1311 392 OFFCURVE",
"1533 532 OFFCURVE",
"1533 836 CURVE SMOOTH",
"1533 1005 OFFCURVE",
"1470 1148 OFFCURVE",
"1304 1148 CURVE SMOOTH",
"1088 1148 OFFCURVE",
"1054 1009 OFFCURVE",
"1054 759 CURVE SMOOTH",
"1055 689 LINE",
"1225 689 LINE",
"1225 834 LINE SMOOTH",
"1225 970 OFFCURVE",
"1255 1002 OFFCURVE",
"1296 1002 CURVE SMOOTH",
"1337 1002 OFFCURVE",
"1365 970 OFFCURVE",
"1365 842 CURVE SMOOTH",
"1365 762 OFFCURVE",
"1345 675 OFFCURVE",
"1313 624 CURVE SMOOTH",
"1243 539 OFFCURVE",
"1057 214 OFFCURVE",
"1057 58 CURVE SMOOTH"
);
},
{
closed = 1;
nodes = (
"232 551 LINE",
"412 551 LINE",
"412 1680 LINE",
"280 1680 LINE",
"260 1600 OFFCURVE",
"158 1544 OFFCURVE",
"90 1538 CURVE",
"90 1419 LINE",
"139 1419 OFFCURVE",
"195 1435 OFFCURVE",
"232 1466 CURVE"
);
},
{
closed = 1;
nodes = (
"423 0 LINE",
"612 0 LINE",
"1112 1767 LINE",
"923 1767 LINE"
);
}
);
width = 1620;
}
);
unicode = 00BD;
},
{
glyphname = onequarter;
layers = (
{
layerId = "7DA9E391-A28A-4B33-B824-B8724EAC872C";
name = "Regular Condensed";
paths = (
{
closed = 1;
nodes = (
"1191 0 LINE",
"1350 0 LINE",
"1350 192 LINE",
"1419 192 LINE",
"1419 324 LINE",
"1350 324 LINE",
"1350 1065 LINE",
"1127 1065 LINE",
"902 306 LINE",
"902 192 LINE",
"1191 192 LINE"
);
},
{
closed = 1;
nodes = (
"232 551 LINE",
"412 551 LINE",
"412 1680 LINE",
"280 1680 LINE",
"260 1600 OFFCURVE",
"158 1544 OFFCURVE",
"90 1538 CURVE",
"90 1419 LINE",
"139 1419 OFFCURVE",
"195 1435 OFFCURVE",
"232 1466 CURVE"
);
},
{
closed = 1;
nodes = (
"423 0 LINE",
"612 0 LINE",
"1112 1767 LINE",
"923 1767 LINE"
);
},
{
closed = 1;
nodes = (
"1050 324 LINE",
"1191 864 LINE",
"1191 324 LINE"
);
}
);
width = 1535;
}
);
unicode = 00BC;
},
{
glyphname = threequarters;
layers = (
{
layerId = "7DA9E391-A28A-4B33-B824-B8724EAC872C";
name = "Regular Condensed";
paths = (
{
closed = 1;
nodes = (
"83 698 OFFCURVE",
"150 598 OFFCURVE",
"316 598 CURVE SMOOTH",
"491 598 OFFCURVE",
"564 707 OFFCURVE",
"564 915 CURVE SMOOTH",
"564 1048 OFFCURVE",
"541 1144 OFFCURVE",
"456 1183 CURVE",
"534 1211 OFFCURVE",
"561 1294 OFFCURVE",
"561 1408 CURVE SMOOTH",
"561 1595 OFFCURVE",
"486 1691 OFFCURVE",
"323 1691 CURVE SMOOTH",
"157 1691 OFFCURVE",
"88 1601 OFFCURVE",
"88 1408 CURVE SMOOTH",
"88 1378 LINE",
"249 1378 LINE",
"249 1383 OFFCURVE",
"250 1399 OFFCURVE",
"250 1404 CURVE SMOOTH",
"250 1513 OFFCURVE",
"268 1553 OFFCURVE",
"323 1553 CURVE SMOOTH",
"369 1553 OFFCURVE",
"401 1524 OFFCURVE",
"401 1407 CURVE SMOOTH",
"401 1278 OFFCURVE",
"364 1252 OFFCURVE",
"286 1250 CURVE SMOOTH",
"284 1250 OFFCURVE",
"267 1250 OFFCURVE",
"265 1250 CURVE",
"265 1114 LINE",
"268 1115 OFFCURVE",
"286 1115 OFFCURVE",
"290 1115 CURVE SMOOTH",
"378 1115 OFFCURVE",
"401 1050 OFFCURVE",
"401 916 CURVE SMOOTH",
"401 795 OFFCURVE",
"390 737 OFFCURVE",
"322 737 CURVE SMOOTH",
"254 737 OFFCURVE",
"243 783 OFFCURVE",
"243 899 CURVE SMOOTH",
"243 969 LINE",
"83 969 LINE",
"83 899 LINE SMOOTH"
);
},
{
closed = 1;
nodes = (
"1211 0 LINE",
"1370 0 LINE",
"1370 192 LINE",
"1439 192 LINE",
"1439 324 LINE",
"1370 324 LINE",
"1370 1065 LINE",
"1147 1065 LINE",
"922 306 LINE",
"922 192 LINE",
"1211 192 LINE"
);
},
{
closed = 1;
nodes = (
"474 0 LINE",
"663 0 LINE",
"1163 1767 LINE",
"974 1767 LINE"
);
},
{
closed = 1;
nodes = (
"1070 324 LINE",
"1211 864 LINE",
"1211 324 LINE"
);
}
);
width = 1555;
}
);
unicode = 00BE;
},
{
glyphname = uni00B9;
layers = (
{
layerId = "7DA9E391-A28A-4B33-B824-B8724EAC872C";
name = "Regular Condensed";
paths = (
{
closed = 1;
nodes = (
"238 564 LINE",
"444 564 LINE",
"444 1759 LINE",
"295 1759 LINE",
"275 1675 OFFCURVE",
"154 1615 OFFCURVE",
"76 1609 CURVE",
"76 1479 LINE",
"132 1479 OFFCURVE",
"195 1496 OFFCURVE",
"238 1528 CURVE"
);
}
);
width = 628;
}
);
unicode = 00B9;
},
{
glyphname = uni00B2;
layers = (
{
layerId = "7DA9E391-A28A-4B33-B824-B8724EAC872C";
name = "Regular Condensed";
paths = (
{
closed = 1;
nodes = (
"185 565 LINE",
"678 565 LINE",
"678 716 LINE",
"387 716 LINE",
"458 981 OFFCURVE",
"691 1129 OFFCURVE",
"691 1450 CURVE SMOOTH",
"691 1631 OFFCURVE",
"623 1780 OFFCURVE",
"447 1780 CURVE SMOOTH",
"219 1780 OFFCURVE",
"182 1633 OFFCURVE",
"182 1368 CURVE SMOOTH",
"183 1294 LINE",
"365 1294 LINE",
"365 1448 LINE SMOOTH",
"365 1588 OFFCURVE",
"395 1621 OFFCURVE",
"439 1621 CURVE SMOOTH",
"482 1621 OFFCURVE",
"511 1587 OFFCURVE",
"511 1455 CURVE SMOOTH",
"511 1371 OFFCURVE",
"490 1280 OFFCURVE",
"456 1226 CURVE SMOOTH",
"378 1130 OFFCURVE",
"185 797 OFFCURVE",
"185 627 CURVE SMOOTH"
);
}
);
width = 831;
}
);
unicode = 00B2;
},
{
glyphname = uni00B3;
layers = (
{
layerId = "7DA9E391-A28A-4B33-B824-B8724EAC872C";
name = "Regular Condensed";
paths = (
{
closed = 1;
nodes = (
"158 709 OFFCURVE",
"230 602 OFFCURVE",
"424 602 CURVE SMOOTH",
"631 602 OFFCURVE",
"715 720 OFFCURVE",
"715 945 CURVE SMOOTH",
"715 1089 OFFCURVE",
"691 1191 OFFCURVE",
"592 1233 CURVE",
"681 1263 OFFCURVE",
"712 1352 OFFCURVE",
"712 1474 CURVE SMOOTH",
"712 1676 OFFCURVE",
"624 1778 OFFCURVE",
"434 1778 CURVE SMOOTH",
"239 1778 OFFCURVE",
"164 1682 OFFCURVE",
"163 1474 CURVE SMOOTH",
"164 1441 LINE",
"351 1441 LINE",
"351 1447 OFFCURVE",
"352 1463 OFFCURVE",
"352 1469 CURVE SMOOTH",
"352 1582 OFFCURVE",
"371 1625 OFFCURVE",
"434 1625 CURVE SMOOTH",
"485 1625 OFFCURVE",
"519 1594 OFFCURVE",
"519 1472 CURVE SMOOTH",
"519 1339 OFFCURVE",
"485 1301 OFFCURVE",
"392 1297 CURVE SMOOTH",
"389 1297 OFFCURVE",
"371 1297 OFFCURVE",
"366 1297 CURVE",
"366 1157 LINE",
"395 1157 LINE SMOOTH",
"495 1157 OFFCURVE",
"519 1086 OFFCURVE",
"519 946 CURVE SMOOTH",
"519 818 OFFCURVE",
"508 756 OFFCURVE",
"432 756 CURVE SMOOTH",
"357 756 OFFCURVE",
"344 805 OFFCURVE",
"344 926 CURVE SMOOTH",
"344 1005 LINE",
"158 1005 LINE",
"158 927 LINE SMOOTH"
);
}
);
width = 856;
}
);
unicode = 00B3;
},
{
glyphname = uni2074;
layers = (
{
layerId = "7DA9E391-A28A-4B33-B824-B8724EAC872C";
name = "Regular Condensed";
paths = (
{
closed = 1;
nodes = (
"477 605 LINE",
"662 605 LINE",
"662 811 LINE",
"736 811 LINE",
"736 960 LINE",
"662 960 LINE",
"662 1761 LINE",
"399 1761 LINE",
"150 940 LINE",
"150 811 LINE",
"477 811 LINE"
);
},
{
closed = 1;
nodes = (
"322 960 LINE",
"477 1519 LINE",
"477 960 LINE"
);
}
);
width = 852;
}
);
unicode = 2074;
},
{
glyphname = asterisk;
layers = (
{
layerId = "7DA9E391-A28A-4B33-B824-B8724EAC872C";
name = "Regular Condensed";
paths = (
{
closed = 1;
nodes = (
"386 889 LINE",
"574 889 LINE",
"546 1174 LINE",
"774 995 LINE",
"869 1158 LINE",
"605 1285 LINE",
"869 1404 LINE",
"774 1568 LINE",
"546 1395 LINE",
"574 1673 LINE",
"386 1673 LINE",
"420 1391 LINE",
"186 1564 LINE",
"91 1400 LINE",
"355 1285 LINE",
"95 1162 LINE",
"190 998 LINE",
"421 1180 LINE"
);
}
);
width = 960;
}
);
unicode = 002A;
},
{
glyphname = backslash;
layers = (
{
layerId = "7DA9E391-A28A-4B33-B824-B8724EAC872C";
name = "Regular Condensed";
paths = (
{
closed = 1;
nodes = (
"507 0 LINE",
"744 0 LINE",
"334 1761 LINE",
"96 1761 LINE"
);
}
);
width = 868;
}
);
unicode = 005C;
},
{
glyphname = bullet;
layers = (
{
layerId = "7DA9E391-A28A-4B33-B824-B8724EAC872C";
name = "Regular Condensed";
paths = (
{
closed = 1;
nodes = (
"165 561 OFFCURVE",
"259 451 OFFCURVE",
"430 451 CURVE SMOOTH",
"601 451 OFFCURVE",
"696 561 OFFCURVE",
"696 741 CURVE SMOOTH",
"696 921 OFFCURVE",
"601 1031 OFFCURVE",
"430 1031 CURVE SMOOTH",
"259 1031 OFFCURVE",
"165 921 OFFCURVE",
"165 741 CURVE SMOOTH"
);
}
);
width = 861;
}
);
unicode = 2022;
},
{
glyphname = colon;
layers = (
{
layerId = "7DA9E391-A28A-4B33-B824-B8724EAC872C";
name = "Regular Condensed";
paths = (
{
closed = 1;
nodes = (
"136 270 LINE",
"419 270 LINE",
"419 539 LINE",
"136 539 LINE"
);
},
{
closed = 1;
nodes = (
"136 1038 LINE",
"419 1038 LINE",
"419 1307 LINE",
"136 1307 LINE"
);
}
);
width = 555;
}
);
unicode = 003A;
},
{
glyphname = comma;
layers = (
{
layerId = "7DA9E391-A28A-4B33-B824-B8724EAC872C";
name = "Regular Condensed";
paths = (
{
closed = 1;
nodes = (
"172 -338 LINE",
"303 -338 LINE",
"405 9 LINE",
"405 268 LINE",
"117 268 LINE",
"117 0 LINE",
"242 0 LINE"
);
}
);
width = 488;
}
);
unicode = 002C;
},
{
glyphname = exclam;
layers = (
{
layerId = "7DA9E391-A28A-4B33-B824-B8724EAC872C";
name = "Regular Condensed";
paths = (
{
closed = 1;
nodes = (
"126 0 LINE",
"386 0 LINE",
"386 256 LINE",
"126 256 LINE"
);
},
{
closed = 1;
nodes = (
"204 423 LINE",
"314 423 LINE",
"399 1761 LINE",
"115 1761 LINE"
);
}
);
width = 514;
}
);
unicode = 0021;
},
{
glyphname = numbersign;
layers = (
{
layerId = "7DA9E391-A28A-4B33-B824-B8724EAC872C";
name = "Regular Condensed";
paths = (
{
closed = 1;
nodes = (
"153 0 LINE",
"369 0 LINE",
"482 579 LINE",
"670 579 LINE",
"557 0 LINE",
"773 0 LINE",
"887 579 LINE",
"1067 579 LINE",
"1067 753 LINE",
"922 753 LINE",
"977 1031 LINE",
"1134 1031 LINE",
"1134 1204 LINE",
"1011 1204 LINE",
"1122 1762 LINE",
"905 1762 LINE",
"793 1204 LINE",
"605 1204 LINE",
"718 1762 LINE",
"501 1762 LINE",
"389 1204 LINE",
"207 1204 LINE",
"207 1031 LINE",
"355 1031 LINE",
"300 753 LINE",
"140 753 LINE",
"140 579 LINE",
"266 579 LINE"
);
},
{
closed = 1;
nodes = (
"516 752 LINE",
"571 1028 LINE",
"760 1028 LINE",
"705 752 LINE"
);
}
);
width = 1288;
}
);
unicode = 0023;
},
{
glyphname = period;
layers = (
{
layerId = "7DA9E391-A28A-4B33-B824-B8724EAC872C";
name = "Regular Condensed";
paths = (
{
closed = 1;
nodes = (
"149 0 LINE",
"374 0 LINE",
"374 246 LINE",
"149 246 LINE"
);
}
);
width = 532;
}
);
unicode = 002E;
},
{
glyphname = periodcentered;
layers = (
{
layerId = "7DA9E391-A28A-4B33-B824-B8724EAC872C";
name = "Regular Condensed";
paths = (
{
closed = 1;
nodes = (
"132 750 LINE",
"363 750 LINE",
"363 995 LINE",
"132 995 LINE"
);
}
);
width = 480;
}
);
unicode = 00B7;
},
{
glyphname = question;
layers = (
{
layerId = "7DA9E391-A28A-4B33-B824-B8724EAC872C";
name = "Regular Condensed";
paths = (
{
closed = 1;
nodes = (
"251 494 LINE",
"487 494 LINE",
"487 684 LINE",
"765 764 OFFCURVE",
"815 937 OFFCURVE",
"815 1283 CURVE SMOOTH",
"815 1602 OFFCURVE",
"769 1781 OFFCURVE",
"465 1781 CURVE SMOOTH",
"194 1781 OFFCURVE",
"120 1591 OFFCURVE",
"120 1376 CURVE SMOOTH",
"120 1160 LINE",
"381 1160 LINE",
"381 1336 LINE SMOOTH",
"381 1484 OFFCURVE",
"382 1549 OFFCURVE",
"469 1549 CURVE SMOOTH",
"549 1549 OFFCURVE",
"547 1481 OFFCURVE",
"547 1340 CURVE SMOOTH",
"547 997 OFFCURVE",
"536 883 OFFCURVE",
"251 810 CURVE"
);
},
{
closed = 1;
nodes = (
"257 1 LINE",
"489 1 LINE",
"489 299 LINE",
"257 299 LINE"
);
}
);
width = 897;
}
);
unicode = 003F;
},
{
glyphname = quotedbl;
layers = (
{
layerId = "7DA9E391-A28A-4B33-B824-B8724EAC872C";
name = "Regular Condensed";
paths = (
{
closed = 1;
nodes = (
"241 1125 LINE",
"349 1125 LINE",
"415 1761 LINE",
"170 1761 LINE"
);
},
{
closed = 1;
nodes = (
"606 1125 LINE",
"714 1125 LINE",
"780 1761 LINE",
"536 1761 LINE"
);
}
);
width = 944;
}
);
unicode = 0022;
},
{
glyphname = quotesingle;
layers = (
{
layerId = "7DA9E391-A28A-4B33-B824-B8724EAC872C";
name = "Regular Condensed";
paths = (
{
closed = 1;
nodes = (
"160 1125 LINE",
"273 1125 LINE",
"338 1761 LINE",
"100 1761 LINE"
);
}
);
width = 423;
}
);
unicode = 0027;
},
{
glyphname = semicolon;
layers = (
{
layerId = "7DA9E391-A28A-4B33-B824-B8724EAC872C";
name = "Regular Condensed";
paths = (
{
closed = 1;
nodes = (
"184 -107 LINE",
"326 -107 LINE",
"435 264 LINE",
"435 533 LINE",
"132 533 LINE",
"132 255 LINE",
"262 255 LINE"
);
},
{
closed = 1;
nodes = (
"126 944 LINE",
"427 944 LINE",
"427 1250 LINE",
"126 1250 LINE"
);
}
);
width = 561;
}
);
unicode = 003B;
},
{
glyphname = slash;
layers = (
{
layerId = "7DA9E391-A28A-4B33-B824-B8724EAC872C";
name = "Regular Condensed";
paths = (
{
closed = 1;
nodes = (
"86 0 LINE",
"320 0 LINE",
"748 1769 LINE",
"513 1769 LINE"
);
}
);
width = 826;
}
);
unicode = 002F;
},
{
glyphname = underscore;
layers = (
{
layerId = "7DA9E391-A28A-4B33-B824-B8724EAC872C";
name = "Regular Condensed";
paths = (
{
closed = 1;
nodes = (
"48 -211 LINE",
"699 -211 LINE",
"699 -28 LINE",
"48 -28 LINE"
);
}
);
width = 748;
}
);
unicode = 005F;
},
{
glyphname = braceleft;
layers = (
{
layerId = "7DA9E391-A28A-4B33-B824-B8724EAC872C";
name = "Regular Condensed";
paths = (
{
closed = 1;
nodes = (
"272 -45 OFFCURVE",
"367 -121 OFFCURVE",
"614 -121 CURVE SMOOTH",
"674 -121 LINE",
"674 78 LINE",
"553 78 OFFCURVE",
"535 106 OFFCURVE",
"535 230 CURVE SMOOTH",
"535 476 LINE SMOOTH",
"535 728 OFFCURVE",
"509 790 OFFCURVE",
"376 830 CURVE",
"509 870 OFFCURVE",
"535 932 OFFCURVE",
"535 1184 CURVE SMOOTH",
"535 1430 LINE SMOOTH",
"535 1554 OFFCURVE",
"553 1582 OFFCURVE",
"674 1582 CURVE",
"674 1781 LINE",
"614 1781 LINE SMOOTH",
"367 1781 OFFCURVE",
"272 1705 OFFCURVE",
"272 1443 CURVE SMOOTH",
"272 1168 LINE SMOOTH",
"272 999 OFFCURVE",
"264 950 OFFCURVE",
"133 950 CURVE",
"133 710 LINE",
"264 710 OFFCURVE",
"272 661 OFFCURVE",
"272 492 CURVE SMOOTH",
"272 217 LINE SMOOTH"
);
}
);
width = 798;
}
);
unicode = 007B;
},
{
glyphname = braceright;
layers = (
{
layerId = "7DA9E391-A28A-4B33-B824-B8724EAC872C";
name = "Regular Condensed";
paths = (
{
closed = 1;
nodes = (
"133 -121 LINE",
"193 -121 LINE SMOOTH",
"440 -121 OFFCURVE",
"535 -45 OFFCURVE",
"535 217 CURVE",
"535 492 LINE SMOOTH",
"535 661 OFFCURVE",
"543 710 OFFCURVE",
"674 710 CURVE",
"674 950 LINE",
"543 950 OFFCURVE",
"535 999 OFFCURVE",
"535 1168 CURVE",
"535 1443 LINE SMOOTH",
"535 1705 OFFCURVE",
"440 1781 OFFCURVE",
"193 1781 CURVE",
"133 1781 LINE",
"133 1582 LINE",
"254 1582 OFFCURVE",
"272 1554 OFFCURVE",
"272 1430 CURVE",
"272 1184 LINE SMOOTH",
"272 932 OFFCURVE",
"298 870 OFFCURVE",
"432 830 CURVE",
"298 790 OFFCURVE",
"272 728 OFFCURVE",
"272 476 CURVE",
"272 230 LINE SMOOTH",
"272 106 OFFCURVE",
"254 78 OFFCURVE",
"133 78 CURVE"
);
}
);
width = 798;
}
);
unicode = 007D;
},
{
glyphname = bracketleft;
layers = (
{
layerId = "7DA9E391-A28A-4B33-B824-B8724EAC872C";
name = "Regular Condensed";
paths = (
{
closed = 1;
nodes = (
"179 0 LINE",
"650 0 LINE",
"650 209 LINE",
"445 209 LINE",
"445 1552 LINE",
"650 1552 LINE",
"650 1761 LINE",
"179 1761 LINE"
);
}
);
width = 764;
}
);
unicode = 005B;
},
{
glyphname = bracketright;
layers = (
{
layerId = "7DA9E391-A28A-4B33-B824-B8724EAC872C";
name = "Regular Condensed";
paths = (
{
closed = 1;
nodes = (
"135 0 LINE",
"606 0 LINE",
"606 1761 LINE",
"135 1761 LINE",
"135 1552 LINE",
"340 1552 LINE",
"340 209 LINE",
"135 209 LINE"
);
}
);
width = 764;
}
);
unicode = 005D;
},
{
glyphname = parenleft;
layers = (
{
layerId = "7DA9E391-A28A-4B33-B824-B8724EAC872C";
name = "Regular Condensed";
paths = (
{
closed = 1;
nodes = (
"129 -50 OFFCURVE",
"235 -136 OFFCURVE",
"534 -136 CURVE",
"534 64 LINE",
"414 64 OFFCURVE",
"395 110 OFFCURVE",
"395 309 CURVE SMOOTH",
"395 1378 LINE SMOOTH",
"395 1577 OFFCURVE",
"414 1623 OFFCURVE",
"534 1623 CURVE",
"534 1823 LINE",
"235 1823 OFFCURVE",
"129 1737 OFFCURVE",
"129 1374 CURVE SMOOTH",
"129 313 LINE SMOOTH"
);
}
);
width = 619;
}
);
unicode = 0028;
},
{
glyphname = parenright;
layers = (
{
layerId = "7DA9E391-A28A-4B33-B824-B8724EAC872C";
name = "Regular Condensed";
paths = (
{
closed = 1;
nodes = (
"86 -136 LINE",
"385 -136 OFFCURVE",
"490 -50 OFFCURVE",
"490 313 CURVE SMOOTH",
"490 1374 LINE SMOOTH",
"490 1737 OFFCURVE",
"385 1823 OFFCURVE",
"86 1823 CURVE",
"86 1623 LINE",
"206 1623 OFFCURVE",
"225 1577 OFFCURVE",
"225 1378 CURVE SMOOTH",
"225 309 LINE SMOOTH",
"225 110 OFFCURVE",
"206 64 OFFCURVE",
"86 64 CURVE"
);
}
);
width = 619;
}
);
unicode = 0029;
},
{
glyphname = emdash;
layers = (
{
layerId = "7DA9E391-A28A-4B33-B824-B8724EAC872C";
name = "Regular Condensed";
paths = (
{
closed = 1;
nodes = (
"60 509 LINE",
"1092 509 LINE",
"1092 741 LINE",
"60 741 LINE"
);
}
);
width = 1153;
}
);
unicode = 2014;
},
{
glyphname = endash;
layers = (
{
layerId = "7DA9E391-A28A-4B33-B824-B8724EAC872C";
name = "Regular Condensed";
paths = (
{
closed = 1;
nodes = (
"120 509 LINE",
"636 509 LINE",
"636 741 LINE",
"120 741 LINE"
);
}
);
width = 756;
}
);
unicode = 2013;
},
{
glyphname = hyphen;
layers = (
{
layerId = "7DA9E391-A28A-4B33-B824-B8724EAC872C";
name = "Regular Condensed";
paths = (
{
closed = 1;
nodes = (
"89 661 LINE",
"567 661 LINE",
"567 836 LINE",
"89 836 LINE"
);
}
);
width = 696;
}
);
unicode = 002D;
},
{
glyphname = uni00AD;
layers = (
{
layerId = "7DA9E391-A28A-4B33-B824-B8724EAC872C";
name = "Regular Condensed";
paths = (
{
closed = 1;
nodes = (
"90 509 LINE",
"606 509 LINE",
"606 741 LINE",
"90 741 LINE"
);
}
);
width = 696;
}
);
unicode = 00AD;
},
{
glyphname = guillemotleft;
layers = (
{
layerId = "7DA9E391-A28A-4B33-B824-B8724EAC872C";
name = "Regular Condensed";
paths = (
{
closed = 1;
nodes = (
"579 327 LINE",
"579 599 LINE",
"267 749 LINE",
"579 890 LINE",
"579 1158 LINE",
"88 887 LINE",
"88 612 LINE"
);
},
{
closed = 1;
nodes = (
"1133 327 LINE",
"1133 599 LINE",
"821 749 LINE",
"1133 890 LINE",
"1133 1158 LINE",
"642 887 LINE",
"642 612 LINE"
);
}
);
width = 1304;
}
);
unicode = 00AB;
},
{
glyphname = guillemotright;
layers = (
{
layerId = "7DA9E391-A28A-4B33-B824-B8724EAC872C";
name = "Regular Condensed";
paths = (
{
closed = 1;
nodes = (
"151 327 LINE",
"641 612 LINE",
"641 887 LINE",
"151 1158 LINE",
"151 890 LINE",
"463 749 LINE",
"151 599 LINE"
);
},
{
closed = 1;
nodes = (
"704 327 LINE",
"1195 612 LINE",
"1195 887 LINE",
"704 1158 LINE",
"704 890 LINE",
"1016 749 LINE",
"704 599 LINE"
);
}
);
width = 1304;
}
);
unicode = 00BB;
},
{
glyphname = guilsinglleft;
layers = (
{
layerId = "7DA9E391-A28A-4B33-B824-B8724EAC872C";
name = "Regular Condensed";
paths = (
{
closed = 1;
nodes = (
"548 327 LINE",
"548 599 LINE",
"236 749 LINE",
"548 890 LINE",
"548 1158 LINE",
"57 887 LINE",
"57 612 LINE"
);
}
);
width = 606;
}
);
unicode = 2039;
},
{
glyphname = guilsinglright;
layers = (
{
layerId = "7DA9E391-A28A-4B33-B824-B8724EAC872C";
name = "Regular Condensed";
paths = (
{
closed = 1;
nodes = (
"139 327 LINE",
"630 612 LINE",
"630 887 LINE",
"139 1158 LINE",
"139 890 LINE",
"451 749 LINE",
"139 599 LINE"
);
}
);
width = 727;
}
);
unicode = 203A;
},
{
glyphname = quotedblbase;
layers = (
{
layerId = "7DA9E391-A28A-4B33-B824-B8724EAC872C";
name = "Regular Condensed";
paths = (
{
closed = 1;
nodes = (
"208 -373 LINE",
"372 -373 LINE",
"481 8 LINE",
"481 261 LINE",
"151 261 LINE",
"151 0 LINE",
"286 0 LINE"
);
},
{
closed = 1;
nodes = (
"674 -373 LINE",
"838 -373 LINE",
"947 8 LINE",
"947 261 LINE",
"617 261 LINE",
"617 0 LINE",
"752 0 LINE"
);
}
);
width = 1016;
}
);
unicode = 201E;
},
{
glyphname = quotedblleft;
layers = (
{
layerId = "7DA9E391-A28A-4B33-B824-B8724EAC872C";
name = "Regular Condensed";
paths = (
{
closed = 1;
nodes = (
"140 1141 LINE",
"471 1141 LINE",
"471 1403 LINE",
"336 1403 LINE",
"414 1775 LINE",
"250 1775 LINE",
"140 1394 LINE"
);
},
{
closed = 1;
nodes = (
"606 1141 LINE",
"937 1141 LINE",
"937 1403 LINE",
"802 1403 LINE",
"880 1775 LINE",
"716 1775 LINE",
"606 1394 LINE"
);
}
);
width = 1030;
}
);
unicode = 201C;
},
{
glyphname = quotedblright;
layers = (
{
layerId = "7DA9E391-A28A-4B33-B824-B8724EAC872C";
name = "Regular Condensed";
paths = (
{
closed = 1;
nodes = (
"212 1141 LINE",
"376 1141 LINE",
"486 1522 LINE",
"486 1775 LINE",
"155 1775 LINE",
"155 1513 LINE",
"290 1513 LINE"
);
},
{
closed = 1;
nodes = (
"678 1141 LINE",
"842 1141 LINE",
"952 1522 LINE",
"952 1775 LINE",
"621 1775 LINE",
"621 1513 LINE",
"756 1513 LINE"
);
}
);
width = 1077;
}
);
unicode = 201D;
},
{
glyphname = quoteleft;
layers = (
{
layerId = "7DA9E391-A28A-4B33-B824-B8724EAC872C";
name = "Regular Condensed";
paths = (
{
closed = 1;
nodes = (
"119 1065 LINE",
"468 1065 LINE",
"468 1345 LINE",
"315 1345 LINE",
"408 1775 LINE",
"255 1775 LINE",
"119 1336 LINE"
);
}
);
width = 586;
}
);
unicode = 2018;
},
{
glyphname = quoteright;
layers = (
{
layerId = "7DA9E391-A28A-4B33-B824-B8724EAC872C";
name = "Regular Condensed";
paths = (
{
closed = 1;
nodes = (
"188 1065 LINE",
"342 1065 LINE",
"478 1503 LINE",
"478 1775 LINE",
"129 1775 LINE",
"129 1494 LINE",
"282 1494 LINE"
);
}
);
width = 586;
}
);
unicode = 2019;
},
{
glyphname = quotesinglbase;
layers = (
{
layerId = "7DA9E391-A28A-4B33-B824-B8724EAC872C";
name = "Regular Condensed";
paths = (
{
closed = 1;
nodes = (
"138 -324 LINE",
"302 -324 LINE",
"411 9 LINE",
"411 258 LINE",
"80 258 LINE",
"80 0 LINE",
"216 0 LINE"
);
}
);
width = 484;
}
);
unicode = 201A;
},
{
glyphname = .notdef;
layers = (
{
layerId = "7DA9E391-A28A-4B33-B824-B8724EAC872C";
name = "Regular Condensed";
paths = (
{
closed = 1;
nodes = (
"204 102 LINE",
"204 990 LINE",
"820 990 LINE",
"820 102 LINE"
);
},
{
closed = 1;
nodes = (
"102 0 LINE",
"922 0 LINE",
"922 1092 LINE",
"102 1092 LINE"
);
}
);
width = 1024;
}
);
},
{
glyphname = florin;
layers = (
{
layerId = "7DA9E391-A28A-4B33-B824-B8724EAC872C";
name = "Regular Condensed";
paths = (
{
closed = 1;
nodes = (
"168 -9 OFFCURVE",
"226 -17 OFFCURVE",
"290 -17 CURVE SMOOTH",
"442 -17 OFFCURVE",
"510 64 OFFCURVE",
"510 221 CURVE SMOOTH",
"510 1056 LINE",
"656 1056 LINE",
"656 1258 LINE",
"510 1258 LINE",
"510 1484 LINE SMOOTH",
"510 1553 OFFCURVE",
"523 1587 OFFCURVE",
"578 1587 CURVE SMOOTH",
"596 1587 OFFCURVE",
"621 1582 OFFCURVE",
"652 1574 CURVE",
"652 1752 LINE",
"596 1773 OFFCURVE",
"535 1783 OFFCURVE",
"469 1783 CURVE SMOOTH",
"323 1783 OFFCURVE",
"254 1702 OFFCURVE",
"254 1539 CURVE SMOOTH",
"254 1258 LINE",
"107 1258 LINE",
"107 1056 LINE",
"254 1056 LINE",
"254 305 LINE SMOOTH",
"254 215 OFFCURVE",
"246 182 OFFCURVE",
"163 182 CURVE SMOOTH",
"150 182 OFFCURVE",
"134 184 OFFCURVE",
"115 186 CURVE",
"115 8 LINE"
);
}
);
width = 767;
}
);
unicode = 0192;
},
{
glyphname = cent;
layers = (
{
components = (
{
name = c;
transform = "{1, 0, 0, 1, 0, 0}";
}
);
layerId = "7DA9E391-A28A-4B33-B824-B8724EAC872C";
name = "Regular Condensed";
paths = (
{
closed = 1;
nodes = (
"416 -251 LINE",
"529 -251 LINE",
"529 4 LINE",
"416 4 LINE"
);
},
{
closed = 1;
nodes = (
"529 1509 LINE",
"529 1766 LINE",
"416 1766 LINE",
"416 1511 LINE"
);
}
);
width = 788;
}
);
unicode = 00A2;
},
{
glyphname = currency;
layers = (
{
layerId = "7DA9E391-A28A-4B33-B824-B8724EAC872C";
name = "Regular Condensed";
paths = (
{
closed = 1;
nodes = (
"274 509 LINE",
"363 598 LINE",
"424 563 OFFCURVE",
"496 545 OFFCURVE",
"579 545 CURVE SMOOTH",
"661 545 OFFCURVE",
"733 562 OFFCURVE",
"795 597 CURVE",
"884 509 LINE",
"1034 658 LINE",
"944 748 LINE",
"980 813 OFFCURVE",
"998 885 OFFCURVE",
"998 964 CURVE SMOOTH",
"998 1043 OFFCURVE",
"980 1114 OFFCURVE",
"944 1179 CURVE",
"1034 1269 LINE",
"884 1418 LINE",
"797 1331 LINE",
"732 1367 OFFCURVE",
"659 1385 OFFCURVE",
"579 1385 CURVE SMOOTH",
"498 1385 OFFCURVE",
"426 1367 OFFCURVE",
"361 1330 CURVE",
"274 1418 LINE",
"125 1268 LINE",
"215 1178 LINE",
"180 1113 OFFCURVE",
"163 1042 OFFCURVE",
"163 964 CURVE SMOOTH",
"163 887 OFFCURVE",
"181 815 OFFCURVE",
"216 750 CURVE",
"125 659 LINE"
);
},
{
closed = 1;
nodes = (
"788 842 OFFCURVE",
"706 741 OFFCURVE",
"579 741 CURVE SMOOTH",
"452 741 OFFCURVE",
"371 840 OFFCURVE",
"371 964 CURVE SMOOTH",
"371 1087 OFFCURVE",
"453 1186 OFFCURVE",
"579 1186 CURVE SMOOTH",
"708 1186 OFFCURVE",
"788 1092 OFFCURVE",
"788 966 CURVE SMOOTH"
);
}
);
width = 1159;
}
);
unicode = 00A4;
},
{
glyphname = dollar;
layers = (
{
components = (
{
name = s;
transform = "{1, 0, 0, 1, 0, 22}";
}
);
layerId = "7DA9E391-A28A-4B33-B824-B8724EAC872C";
name = "Regular Condensed";
paths = (
{
closed = 1;
nodes = (
"405 -220 LINE",
"549 -220 LINE",
"549 53 LINE",
"405 53 LINE"
);
},
{
closed = 1;
nodes = (
"396 1504 LINE",
"540 1504 LINE",
"540 1760 LINE",
"396 1760 LINE"
);
}
);
width = 902;
}
);
unicode = 0024;
},
{
glyphname = sterling;
layers = (
{
layerId = "7DA9E391-A28A-4B33-B824-B8724EAC872C";
name = "Regular Condensed";
paths = (
{
closed = 1;
nodes = (
"82 0 LINE",
"954 0 LINE",
"954 226 LINE",
"415 226 LINE",
"530 282 OFFCURVE",
"599 420 OFFCURVE",
"599 622 CURVE SMOOTH",
"599 671 OFFCURVE",
"593 728 OFFCURVE",
"582 783 CURVE",
"865 783 LINE",
"865 973 LINE",
"532 973 LINE",
"465 1224 OFFCURVE",
"417 1365 OFFCURVE",
"417 1414 CURVE SMOOTH",
"417 1530 OFFCURVE",
"484 1567 OFFCURVE",
"585 1567 CURVE SMOOTH",
"675 1567 OFFCURVE",
"719 1502 OFFCURVE",
"719 1393 CURVE SMOOTH",
"719 1246 LINE",
"963 1246 LINE",
"963 1381 LINE SMOOTH",
"963 1651 OFFCURVE",
"836 1781 OFFCURVE",
"592 1781 CURVE SMOOTH",
"302 1781 OFFCURVE",
"166 1638 OFFCURVE",
"166 1389 CURVE SMOOTH",
"166 1352 OFFCURVE",
"216 1180 OFFCURVE",
"281 973 CURVE",
"92 973 LINE",
"92 783 LINE",
"322 783 LINE",
"332 733 OFFCURVE",
"337 679 OFFCURVE",
"337 631 CURVE SMOOTH",
"337 403 OFFCURVE",
"245 276 OFFCURVE",
"82 205 CURVE"
);
}
);
width = 1077;
}
);
unicode = 00A3;
},
{
glyphname = yen;
layers = (
{
components = (
{
name = Y;
transform = "{1, 0, 0, 1, 0, 0}";
}
);
layerId = "7DA9E391-A28A-4B33-B824-B8724EAC872C";
name = "Regular Condensed";
paths = (
{
closed = 1;
nodes = (
"774 315 LINE",
"774 468 LINE",
"550 468 LINE",
"550 619 LINE",
"774 619 LINE",
"774 770 LINE",
"94 770 LINE",
"94 619 LINE",
"340 619 LINE",
"340 468 LINE",
"94 468 LINE",
"94 315 LINE"
);
}
);
width = 866;
}
);
unicode = 00A5;
},
{
glyphname = approxequal;
layers = (
{
layerId = "7DA9E391-A28A-4B33-B824-B8724EAC872C";
name = "Regular Condensed";
paths = (
{
closed = 1;
nodes = (
"478 431 OFFCURVE",
"657 326 OFFCURVE",
"771 326 CURVE SMOOTH",
"892 326 OFFCURVE",
"993 576 OFFCURVE",
"1014 658 CURVE",
"827 700 LINE",
"803 619 OFFCURVE",
"760 591 OFFCURVE",
"740 588 CURVE SMOOTH",
"676 588 OFFCURVE",
"456 686 OFFCURVE",
"352 686 CURVE SMOOTH",
"235 686 OFFCURVE",
"156 588 OFFCURVE",
"105 419 CURVE",
"277 338 LINE",
"305 404 OFFCURVE",
"331 431 OFFCURVE",
"372 431 CURVE SMOOTH"
);
},
{
closed = 1;
nodes = (
"478 924 OFFCURVE",
"657 819 OFFCURVE",
"771 819 CURVE SMOOTH",
"892 819 OFFCURVE",
"993 1069 OFFCURVE",
"1014 1151 CURVE",
"827 1193 LINE",
"803 1112 OFFCURVE",
"760 1084 OFFCURVE",
"740 1081 CURVE SMOOTH",
"676 1081 OFFCURVE",
"456 1179 OFFCURVE",
"352 1179 CURVE SMOOTH",
"235 1179 OFFCURVE",
"156 1081 OFFCURVE",
"105 912 CURVE",
"277 831 LINE",
"305 897 OFFCURVE",
"331 924 OFFCURVE",
"372 924 CURVE SMOOTH"
);
}
);
width = 1117;
}
);
unicode = 2248;
},
{
glyphname = asciitilde;
layers = (
{
layerId = "7DA9E391-A28A-4B33-B824-B8724EAC872C";
name = "Regular Condensed";
paths = (
{
closed = 1;
nodes = (
"473 914 OFFCURVE",
"652 810 OFFCURVE",
"766 810 CURVE SMOOTH",
"887 810 OFFCURVE",
"988 1060 OFFCURVE",
"1009 1141 CURVE",
"823 1183 LINE",
"798 1102 OFFCURVE",
"755 1074 OFFCURVE",
"735 1072 CURVE SMOOTH",
"671 1072 OFFCURVE",
"451 1169 OFFCURVE",
"347 1169 CURVE SMOOTH",
"230 1169 OFFCURVE",
"151 1072 OFFCURVE",
"100 903 CURVE",
"272 821 LINE",
"299 884 OFFCURVE",
"319 914 OFFCURVE",
"367 914 CURVE SMOOTH"
);
}
);
width = 1117;
}
);
unicode = 007E;
},
{
glyphname = divide;
layers = (
{
layerId = "7DA9E391-A28A-4B33-B824-B8724EAC872C";
name = "Regular Condensed";
paths = (
{
closed = 1;
nodes = (
"253 237 LINE",
"551 237 LINE",
"551 535 LINE",
"253 535 LINE"
);
},
{
closed = 1;
nodes = (
"94 638 LINE",
"710 638 LINE",
"710 870 LINE",
"94 870 LINE"
);
},
{
closed = 1;
nodes = (
"253 976 LINE",
"551 976 LINE",
"551 1274 LINE",
"253 1274 LINE"
);
}
);
width = 804;
}
);
unicode = 00F7;
},
{
glyphname = equal;
layers = (
{
layerId = "7DA9E391-A28A-4B33-B824-B8724EAC872C";
name = "Regular Condensed";
paths = (
{
closed = 1;
nodes = (
"104 549 LINE",
"618 549 LINE",
"618 738 LINE",
"104 738 LINE"
);
},
{
closed = 1;
nodes = (
"104 892 LINE",
"618 892 LINE",
"618 1076 LINE",
"104 1076 LINE"
);
}
);
width = 722;
}
);
unicode = 003D;
},
{
glyphname = greater;
layers = (
{
layerId = "7DA9E391-A28A-4B33-B824-B8724EAC872C";
name = "Regular Condensed";
paths = (
{
closed = 1;
nodes = (
"90 238 LINE",
"664 605 LINE",
"664 898 LINE",
"90 1264 LINE",
"90 992 LINE",
"486 749 LINE",
"90 513 LINE"
);
}
);
width = 730;
}
);
unicode = 003E;
},
{
glyphname = greaterequal;
layers = (
{
layerId = "7DA9E391-A28A-4B33-B824-B8724EAC872C";
name = "Regular Condensed";
paths = (
{
closed = 1;
nodes = (
"107 286 LINE",
"681 655 LINE",
"681 947 LINE",
"107 1312 LINE",
"107 1037 LINE",
"503 801 LINE",
"107 558 LINE"
);
},
{
closed = 1;
nodes = (
"118 0 LINE",
"649 0 LINE",
"649 179 LINE",
"118 179 LINE"
);
}
);
width = 781;
}
);
unicode = 2265;
},
{
glyphname = infinity;
layers = (
{
layerId = "7DA9E391-A28A-4B33-B824-B8724EAC872C";
name = "Regular Condensed";
paths = (
{
closed = 1;
nodes = (
"696 512 OFFCURVE",
"787 439 OFFCURVE",
"912 439 CURVE SMOOTH",
"1090 439 OFFCURVE",
"1182 559 OFFCURVE",
"1182 744 CURVE SMOOTH",
"1182 927 OFFCURVE",
"1088 1041 OFFCURVE",
"912 1041 CURVE SMOOTH",
"814 1041 OFFCURVE",
"723 989 OFFCURVE",
"639 885 CURVE",
"554 980 OFFCURVE",
"465 1028 OFFCURVE",
"370 1028 CURVE SMOOTH",
"200 1028 OFFCURVE",
"108 920 OFFCURVE",
"108 744 CURVE SMOOTH",
"108 564 OFFCURVE",
"196 452 OFFCURVE",
"370 452 CURVE SMOOTH",
"482 452 OFFCURVE",
"583 522 OFFCURVE",
"639 585 CURVE"
);
},
{
closed = 1;
nodes = (
"528 693 OFFCURVE",
"480 669 OFFCURVE",
"433 669 CURVE SMOOTH",
"374 669 OFFCURVE",
"344 693 OFFCURVE",
"344 740 CURVE SMOOTH",
"344 787 OFFCURVE",
"374 810 OFFCURVE",
"433 810 CURVE SMOOTH",
"481 810 OFFCURVE",
"529 787 OFFCURVE",
"577 740 CURVE"
);
},
{
closed = 1;
nodes = (
"948 693 OFFCURVE",
"916 669 OFFCURVE",
"853 669 CURVE SMOOTH",
"799 669 OFFCURVE",
"748 693 OFFCURVE",
"701 740 CURVE",
"752 787 OFFCURVE",
"802 811 OFFCURVE",
"853 811 CURVE SMOOTH",
"916 811 OFFCURVE",
"948 787 OFFCURVE",
"948 740 CURVE SMOOTH"
);
}
);
width = 1300;
}
);
unicode = 221E;
},
{
glyphname = integral;
layers = (
{
layerId = "7DA9E391-A28A-4B33-B824-B8724EAC872C";
name = "Regular Condensed";
paths = (
{
closed = 1;
nodes = (
"168 -9 OFFCURVE",
"226 -17 OFFCURVE",
"290 -17 CURVE SMOOTH",
"442 -17 OFFCURVE",
"510 64 OFFCURVE",
"510 221 CURVE SMOOTH",
"510 1484 LINE SMOOTH",
"510 1553 OFFCURVE",
"523 1587 OFFCURVE",
"578 1587 CURVE SMOOTH",
"596 1587 OFFCURVE",
"621 1582 OFFCURVE",
"652 1574 CURVE",
"652 1752 LINE",
"596 1773 OFFCURVE",
"535 1783 OFFCURVE",
"469 1783 CURVE SMOOTH",
"323 1783 OFFCURVE",
"254 1702 OFFCURVE",
"254 1539 CURVE SMOOTH",
"254 305 LINE SMOOTH",
"254 215 OFFCURVE",
"246 182 OFFCURVE",
"163 182 CURVE SMOOTH",
"150 182 OFFCURVE",
"134 184 OFFCURVE",
"115 186 CURVE",
"115 8 LINE"
);
}
);
width = 767;
}
);
unicode = 222B;
},
{
glyphname = less;
layers = (
{
layerId = "7DA9E391-A28A-4B33-B824-B8724EAC872C";
name = "Regular Condensed";
paths = (
{
closed = 1;
nodes = (
"638 238 LINE",
"638 510 LINE",
"242 753 LINE",
"638 989 LINE",
"638 1264 LINE",
"65 899 LINE",
"65 607 LINE"
);
}
);
width = 730;
}
);
unicode = 003C;
},
{
glyphname = lessequal;
layers = (
{
layerId = "7DA9E391-A28A-4B33-B824-B8724EAC872C";
name = "Regular Condensed";
paths = (
{
closed = 1;
nodes = (
"656 286 LINE",
"656 558 LINE",
"259 801 LINE",
"656 1037 LINE",
"656 1312 LINE",
"82 947 LINE",
"82 655 LINE"
);
},
{
closed = 1;
nodes = (
"112 0 LINE",
"642 0 LINE",
"642 179 LINE",
"112 179 LINE"
);
}
);
width = 781;
}
);
unicode = 2264;
},
{
glyphname = logicalnot;
layers = (
{
layerId = "7DA9E391-A28A-4B33-B824-B8724EAC872C";
name = "Regular Condensed";
paths = (
{
closed = 1;
nodes = (
"602 439 LINE",
"826 439 LINE",
"826 979 LINE",
"97 979 LINE",
"97 743 LINE",
"602 743 LINE"
);
}
);
width = 947;
}
);
unicode = 00AC;
},
{
glyphname = minus;
layers = (
{
layerId = "7DA9E391-A28A-4B33-B824-B8724EAC872C";
name = "Regular Condensed";
paths = (
{
closed = 1;
nodes = (
"60 509 LINE",
"576 509 LINE",
"576 741 LINE",
"60 741 LINE"
);
}
);
width = 637;
}
);
unicode = 2212;
},
{
glyphname = multiply;
layers = (
{
layerId = "7DA9E391-A28A-4B33-B824-B8724EAC872C";
name = "Regular Condensed";
paths = (
{
closed = 1;
nodes = (
"208 314 LINE",
"355 461 LINE",
"502 314 LINE",
"666 478 LINE",
"519 625 LINE",
"666 772 LINE",
"502 936 LINE",
"355 789 LINE",
"208 936 LINE",
"44 772 LINE",
"191 625 LINE",
"44 478 LINE"
);
}
);
width = 710;
}
);
unicode = 00D7;
},
{
glyphname = notequal;
layers = (
{
layerId = "7DA9E391-A28A-4B33-B824-B8724EAC872C";
name = "Regular Condensed";
paths = (
{
closed = 1;
nodes = (
"134 0 LINE",
"432 0 LINE",
"537 559 LINE",
"782 559 LINE",
"782 791 LINE",
"580 791 LINE",
"609 942 LINE",
"782 942 LINE",
"782 1166 LINE",
"651 1166 LINE",
"763 1765 LINE",
"454 1765 LINE",
"345 1166 LINE",
"103 1166 LINE",
"103 942 LINE",
"305 942 LINE",
"277 791 LINE",
"103 791 LINE",
"103 559 LINE",
"235 559 LINE"
);
}
);
width = 884;
}
);
unicode = 2260;
},
{
glyphname = partialdiff;
layers = (
{
layerId = "7DA9E391-A28A-4B33-B824-B8724EAC872C";
name = "Regular Condensed";
paths = (
{
closed = 1;
nodes = (
"37 127 OFFCURVE",
"158 -21 OFFCURVE",
"446 -21 CURVE SMOOTH",
"669 -21 OFFCURVE",
"811 54 OFFCURVE",
"890 196 CURVE SMOOTH",
"977 354 OFFCURVE",
"1030 1074 OFFCURVE",
"1030 1159 CURVE SMOOTH",
"1030 1479 OFFCURVE",
"928 1681 OFFCURVE",
"619 1681 CURVE SMOOTH",
"513 1681 OFFCURVE",
"383 1656 OFFCURVE",
"229 1607 CURVE",
"283 1376 LINE",
"334 1396 OFFCURVE",
"432 1415 OFFCURVE",
"507 1415 CURVE SMOOTH",
"626 1415 OFFCURVE",
"665 1306 OFFCURVE",
"665 1164 CURVE SMOOTH",
"665 1132 OFFCURVE",
"661 1093 OFFCURVE",
"654 1047 CURVE",
"577 1073 OFFCURVE",
"508 1086 OFFCURVE",
"445 1086 CURVE SMOOTH",
"123 1086 OFFCURVE",
"37 735 OFFCURVE",
"37 413 CURVE SMOOTH"
);
},
{
closed = 1;
nodes = (
"585 349 OFFCURVE",
"556 293 OFFCURVE",
"490 293 CURVE SMOOTH",
"432 293 OFFCURVE",
"417 332 OFFCURVE",
"417 391 CURVE SMOOTH",
"417 411 OFFCURVE",
"419 439 OFFCURVE",
"423 475 CURVE SMOOTH",
"440 645 LINE SMOOTH",
"450 744 OFFCURVE",
"481 794 OFFCURVE",
"534 794 CURVE SMOOTH",
"560 794 OFFCURVE",
"589 782 OFFCURVE",
"622 759 CURVE",
"591 419 LINE SMOOTH"
);
}
);
width = 1072;
}
);
unicode = 2202;
},
{
glyphname = percent;
layers = (
{
layerId = "7DA9E391-A28A-4B33-B824-B8724EAC872C";
name = "Regular Condensed";
paths = (
{
closed = 1;
nodes = (
"580 821 OFFCURVE",
"555 768 OFFCURVE",
"468 768 CURVE SMOOTH",
"381 768 OFFCURVE",
"356 821 OFFCURVE",
"356 939 CURVE SMOOTH",
"356 1431 LINE SMOOTH",
"356 1546 OFFCURVE",
"378 1594 OFFCURVE",
"468 1594 CURVE SMOOTH",
"558 1594 OFFCURVE",
"580 1547 OFFCURVE",
"580 1431 CURVE SMOOTH",
"580 939 LINE SMOOTH"
);
},
{
closed = 1;
nodes = (
"130 713 OFFCURVE",
"231 580 OFFCURVE",
"468 580 CURVE SMOOTH",
"706 580 OFFCURVE",
"806 713 OFFCURVE",
"806 1005 CURVE SMOOTH",
"806 1363 LINE SMOOTH",
"806 1658 OFFCURVE",
"713 1781 OFFCURVE",
"468 1781 CURVE SMOOTH",
"223 1781 OFFCURVE",
"130 1658 OFFCURVE",
"130 1363 CURVE SMOOTH",
"130 1005 LINE SMOOTH"
);
},
{
closed = 1;
nodes = (
"1854 220 OFFCURVE",
"1828 167 OFFCURVE",
"1741 167 CURVE SMOOTH",
"1654 167 OFFCURVE",
"1629 220 OFFCURVE",
"1629 338 CURVE SMOOTH",
"1629 830 LINE SMOOTH",
"1629 945 OFFCURVE",
"1651 993 OFFCURVE",
"1741 993 CURVE SMOOTH",
"1831 993 OFFCURVE",
"1854 946 OFFCURVE",
"1854 830 CURVE SMOOTH",
"1854 338 LINE SMOOTH"
);
},
{
closed = 1;
nodes = (
"1403 112 OFFCURVE",
"1504 -21 OFFCURVE",
"1741 -21 CURVE SMOOTH",
"1979 -21 OFFCURVE",
"2080 112 OFFCURVE",
"2080 404 CURVE SMOOTH",
"2080 762 LINE SMOOTH",
"2080 1057 OFFCURVE",
"1987 1180 OFFCURVE",
"1741 1180 CURVE SMOOTH",
"1496 1180 OFFCURVE",
"1403 1057 OFFCURVE",
"1403 762 CURVE SMOOTH",
"1403 404 LINE SMOOTH"
);
},
{
closed = 1;
nodes = (
"662 0 LINE",
"875 0 LINE",
"1551 1761 LINE",
"1347 1761 LINE"
);
}
);
width = 2209;
}
);
unicode = 0025;
},
{
glyphname = perthousand;
layers = (
{
layerId = "7DA9E391-A28A-4B33-B824-B8724EAC872C";
name = "Regular Condensed";
paths = (
{
closed = 1;
nodes = (
"580 821 OFFCURVE",
"555 768 OFFCURVE",
"468 768 CURVE SMOOTH",
"381 768 OFFCURVE",
"356 821 OFFCURVE",
"356 939 CURVE SMOOTH",
"356 1431 LINE",
"356 1546 OFFCURVE",
"378 1594 OFFCURVE",
"468 1594 CURVE SMOOTH",
"558 1594 OFFCURVE",
"580 1547 OFFCURVE",
"580 1431 CURVE SMOOTH",
"580 939 LINE"
);
},
{
closed = 1;
nodes = (
"130 713 OFFCURVE",
"231 580 OFFCURVE",
"468 580 CURVE SMOOTH",
"706 580 OFFCURVE",
"806 713 OFFCURVE",
"806 1005 CURVE SMOOTH",
"806 1363 LINE",
"806 1658 OFFCURVE",
"713 1781 OFFCURVE",
"468 1781 CURVE SMOOTH",
"223 1781 OFFCURVE",
"130 1658 OFFCURVE",
"130 1363 CURVE SMOOTH",
"130 1005 LINE"
);
},
{
closed = 1;
nodes = (
"1864 220 OFFCURVE",
"1839 167 OFFCURVE",
"1752 167 CURVE SMOOTH",
"1665 167 OFFCURVE",
"1640 220 OFFCURVE",
"1640 338 CURVE SMOOTH",
"1640 830 LINE",
"1640 945 OFFCURVE",
"1662 993 OFFCURVE",
"1752 993 CURVE SMOOTH",
"1842 993 OFFCURVE",
"1864 946 OFFCURVE",
"1864 830 CURVE SMOOTH",
"1864 338 LINE"
);
},
{
closed = 1;
nodes = (
"1414 112 OFFCURVE",
"1514 -21 OFFCURVE",
"1752 -21 CURVE SMOOTH",
"1990 -21 OFFCURVE",
"2090 112 OFFCURVE",
"2090 404 CURVE SMOOTH",
"2090 762 LINE",
"2090 1057 OFFCURVE",
"1997 1180 OFFCURVE",
"1752 1180 CURVE SMOOTH",
"1507 1180 OFFCURVE",
"1414 1057 OFFCURVE",
"1414 762 CURVE SMOOTH",
"1414 404 LINE"
);
},
{
closed = 1;
nodes = (
"2752 220 OFFCURVE",
"2726 167 OFFCURVE",
"2639 167 CURVE SMOOTH",
"2553 167 OFFCURVE",
"2527 220 OFFCURVE",
"2527 338 CURVE SMOOTH",
"2527 830 LINE",
"2527 945 OFFCURVE",
"2549 993 OFFCURVE",
"2639 993 CURVE SMOOTH",
"2729 993 OFFCURVE",
"2752 946 OFFCURVE",
"2752 830 CURVE SMOOTH",
"2752 338 LINE"
);
},
{
closed = 1;
nodes = (
"2301 112 OFFCURVE",
"2402 -21 OFFCURVE",
"2639 -21 CURVE SMOOTH",
"2877 -21 OFFCURVE",
"2978 112 OFFCURVE",
"2978 404 CURVE SMOOTH",
"2978 762 LINE",
"2978 1057 OFFCURVE",
"2885 1180 OFFCURVE",
"2639 1180 CURVE SMOOTH",
"2394 1180 OFFCURVE",
"2301 1057 OFFCURVE",
"2301 762 CURVE SMOOTH",
"2301 404 LINE"
);
},
{
closed = 1;
nodes = (
"662 0 LINE",
"875 0 LINE",
"1551 1761 LINE",
"1347 1761 LINE"
);
}
);
width = 3206;
}
);
unicode = 2030;
},
{
glyphname = plus;
layers = (
{
layerId = "7DA9E391-A28A-4B33-B824-B8724EAC872C";
name = "Regular Condensed";
paths = (
{
closed = 1;
nodes = (
"312 421 LINE",
"494 421 LINE",
"494 654 LINE",
"713 654 LINE",
"713 831 LINE",
"494 831 LINE",
"494 1062 LINE",
"312 1062 LINE",
"312 831 LINE",
"94 831 LINE",
"94 654 LINE",
"312 654 LINE"
);
}
);
width = 808;
}
);
unicode = 002B;
},
{
glyphname = plusminus;
layers = (
{
layerId = "7DA9E391-A28A-4B33-B824-B8724EAC872C";
name = "Regular Condensed";
paths = (
{
closed = 1;
nodes = (
"336 475 LINE",
"518 475 LINE",
"518 708 LINE",
"738 708 LINE",
"738 885 LINE",
"518 885 LINE",
"518 1116 LINE",
"336 1116 LINE",
"336 885 LINE",
"118 885 LINE",
"118 708 LINE",
"336 708 LINE"
);
},
{
closed = 1;
nodes = (
"156 112 LINE",
"672 112 LINE",
"672 295 LINE",
"156 295 LINE"
);
}
);
width = 854;
}
);
unicode = 00B1;
},
{
glyphname = product;
layers = (
{
layerId = "7DA9E391-A28A-4B33-B824-B8724EAC872C";
name = "Regular Condensed";
paths = (
{
closed = 1;
nodes = (
"136 0 LINE",
"399 0 LINE",
"399 1543 LINE",
"634 1543 LINE",
"634 0 LINE",
"896 0 LINE",
"896 1761 LINE",
"136 1761 LINE"
);
}
);
width = 1033;
}
);
unicode = 220F;
},
{
glyphname = radical;
layers = (
{
layerId = "7DA9E391-A28A-4B33-B824-B8724EAC872C";
name = "Regular Condensed";
paths = (
{
closed = 1;
nodes = (
"308 0 LINE",
"682 0 LINE",
"878 1269 LINE",
"1442 1269 LINE",
"1442 1500 LINE",
"610 1500 LINE",
"472 338 LINE",
"358 741 LINE",
"89 741 LINE"
);
}
);
width = 1537;
}
);
unicode = 221A;
},
{
glyphname = summation;
layers = (
{
layerId = "7DA9E391-A28A-4B33-B824-B8724EAC872C";
name = "Regular Condensed";
paths = (
{
closed = 1;
nodes = (
"102 0 LINE",
"719 0 LINE",
"719 275 LINE",
"466 275 LINE",
"674 880 LINE",
"466 1501 LINE",
"719 1501 LINE",
"719 1761 LINE",
"102 1761 LINE",
"102 1505 LINE",
"317 881 LINE",
"102 271 LINE"
);
}
);
width = 814;
}
);
unicode = 2211;
},
{
glyphname = ampersand;
layers = (
{
layerId = "7DA9E391-A28A-4B33-B824-B8724EAC872C";
name = "Regular Condensed";
paths = (
{
closed = 1;
nodes = (
"73 121 OFFCURVE",
"195 -20 OFFCURVE",
"394 -20 CURVE SMOOTH",
"761 -20 OFFCURVE",
"810 433 OFFCURVE",
"1041 690 CURVE",
"932 874 LINE",
"664 556 OFFCURVE",
"589 209 OFFCURVE",
"439 209 CURVE SMOOTH",
"342 209 OFFCURVE",
"296 276 OFFCURVE",
"300 403 CURVE SMOOTH",
"313 705 OFFCURVE",
"847 1025 OFFCURVE",
"847 1434 CURVE SMOOTH",
"847 1656 OFFCURVE",
"743 1781 OFFCURVE",
"531 1781 CURVE SMOOTH",
"336 1781 OFFCURVE",
"208 1658 OFFCURVE",
"208 1431 CURVE SMOOTH",
"208 1164 OFFCURVE",
"667 202 OFFCURVE",
"750 0 CURVE",
"998 0 LINE",
"892 252 OFFCURVE",
"451 1242 OFFCURVE",
"451 1441 CURVE SMOOTH",
"451 1515 OFFCURVE",
"467 1600 OFFCURVE",
"561 1600 CURVE SMOOTH",
"639 1600 OFFCURVE",
"662 1553 OFFCURVE",
"662 1438 CURVE SMOOTH",
"662 1122 OFFCURVE",
"73 804 OFFCURVE",
"73 378 CURVE SMOOTH"
);
}
);
width = 1052;
}
);
unicode = 0026;
},
{
glyphname = asciicircum;
layers = (
{
layerId = "7DA9E391-A28A-4B33-B824-B8724EAC872C";
name = "Regular Condensed";
paths = (
{
closed = 1;
nodes = (
"114 576 LINE",
"371 576 LINE",
"515 1288 LINE",
"659 576 LINE",
"915 576 LINE",
"674 1499 LINE",
"355 1499 LINE"
);
}
);
width = 1030;
}
);
unicode = 005E;
},
{
glyphname = at;
layers = (
{
layerId = "7DA9E391-A28A-4B33-B824-B8724EAC872C";
name = "Regular Condensed";
paths = (
{
closed = 1;
nodes = (
"97 218 OFFCURVE",
"337 -59 OFFCURVE",
"736 -59 CURVE SMOOTH",
"806 -59 OFFCURVE",
"865 -49 OFFCURVE",
"959 -30 CURVE",
"932 138 LINE",
"866 118 OFFCURVE",
"795 110 OFFCURVE",
"739 110 CURVE SMOOTH",
"444 110 OFFCURVE",
"293 326 OFFCURVE",
"293 833 CURVE SMOOTH",
"293 1315 OFFCURVE",
"448 1609 OFFCURVE",
"800 1609 CURVE SMOOTH",
"1145 1609 OFFCURVE",
"1227 1286 OFFCURVE",
"1227 942 CURVE SMOOTH",
"1227 634 OFFCURVE",
"1200 544 OFFCURVE",
"1129 544 CURVE SMOOTH",
"1073 544 OFFCURVE",
"1056 613 OFFCURVE",
"1056 739 CURVE SMOOTH",
"1056 1283 LINE",
"927 1283 LINE",
"896 1161 LINE",
"866 1225 OFFCURVE",
"800 1283 OFFCURVE",
"717 1283 CURVE SMOOTH",
"547 1283 OFFCURVE",
"445 1096 OFFCURVE",
"445 798 CURVE SMOOTH",
"445 488 OFFCURVE",
"573 361 OFFCURVE",
"719 361 CURVE SMOOTH",
"818 361 OFFCURVE",
"890 449 OFFCURVE",
"915 597 CURVE",
"947 455 OFFCURVE",
"1033 378 OFFCURVE",
"1114 378 CURVE SMOOTH",
"1313 378 OFFCURVE",
"1396 591 OFFCURVE",
"1396 910 CURVE SMOOTH",
"1396 1459 OFFCURVE",
"1201 1780 OFFCURVE",
"813 1780 CURVE SMOOTH",
"325 1780 OFFCURVE",
"97 1416 OFFCURVE",
"97 836 CURVE SMOOTH"
);
},
{
closed = 1;
nodes = (
"888 628 OFFCURVE",
"823 547 OFFCURVE",
"748 547 CURVE SMOOTH",
"665 547 OFFCURVE",
"618 617 OFFCURVE",
"618 804 CURVE SMOOTH",
"618 1065 OFFCURVE",
"700 1164 OFFCURVE",
"888 1062 CURVE",
"888 759 LINE SMOOTH"
);
}
);
width = 1492;
}
);
unicode = 0040;
},
{
glyphname = bar;
layers = (
{
layerId = "7DA9E391-A28A-4B33-B824-B8724EAC872C";
name = "Regular Condensed";
paths = (
{
closed = 1;
nodes = (
"150 -84 LINE",
"393 -84 LINE",
"393 1683 LINE",
"150 1683 LINE"
);
}
);
width = 537;
}
);
unicode = 007C;
},
{
glyphname = brokenbar;
layers = (
{
layerId = "7DA9E391-A28A-4B33-B824-B8724EAC872C";
name = "Regular Condensed";
paths = (
{
closed = 1;
nodes = (
"122 -84 LINE",
"408 -84 LINE",
"408 724 LINE",
"122 724 LINE"
);
},
{
closed = 1;
nodes = (
"122 931 LINE",
"408 931 LINE",
"408 1761 LINE",
"122 1761 LINE"
);
}
);
width = 530;
}
);
unicode = 00A6;
},
{
glyphname = copyright;
layers = (
{
layerId = "7DA9E391-A28A-4B33-B824-B8724EAC872C";
name = "Regular Condensed";
paths = (
{
closed = 1;
nodes = (
"497 506 OFFCURVE",
"593 423 OFFCURVE",
"732 423 CURVE SMOOTH",
"894 423 OFFCURVE",
"951 496 OFFCURVE",
"951 642 CURVE SMOOTH",
"951 805 LINE",
"782 805 LINE",
"782 656 LINE SMOOTH",
"782 613 OFFCURVE",
"767 591 OFFCURVE",
"736 591 CURVE SMOOTH",
"708 591 OFFCURVE",
"692 626 OFFCURVE",
"692 656 CURVE SMOOTH",
"692 1065 LINE SMOOTH",
"692 1103 OFFCURVE",
"699 1129 OFFCURVE",
"736 1129 CURVE SMOOTH",
"767 1129 OFFCURVE",
"782 1103 OFFCURVE",
"782 1052 CURVE SMOOTH",
"782 951 LINE",
"947 951 LINE",
"947 1104 LINE SMOOTH",
"947 1238 OFFCURVE",
"870 1304 OFFCURVE",
"736 1304 CURVE SMOOTH",
"571 1304 OFFCURVE",
"497 1216 OFFCURVE",
"497 1048 CURVE SMOOTH",
"497 647 LINE SMOOTH"
);
},
{
closed = 1;
nodes = (
"1231 570 OFFCURVE",
"1022 333 OFFCURVE",
"733 333 CURVE SMOOTH",
"444 333 OFFCURVE",
"235 570 OFFCURVE",
"235 861 CURVE SMOOTH",
"235 1152 OFFCURVE",
"444 1389 OFFCURVE",
"733 1389 CURVE SMOOTH",
"1022 1389 OFFCURVE",
"1231 1152 OFFCURVE",
"1231 861 CURVE SMOOTH"
);
},
{
closed = 1;
nodes = (
"76 488 OFFCURVE",
"360 204 OFFCURVE",
"733 204 CURVE SMOOTH",
"1106 204 OFFCURVE",
"1390 488 OFFCURVE",
"1390 861 CURVE SMOOTH",
"1390 1234 OFFCURVE",
"1106 1518 OFFCURVE",
"733 1518 CURVE SMOOTH",
"360 1518 OFFCURVE",
"76 1234 OFFCURVE",
"76 861 CURVE SMOOTH"
);
}
);
width = 1466;
}
);
unicode = 00A9;
},
{
glyphname = dagger;
layers = (
{
layerId = "7DA9E391-A28A-4B33-B824-B8724EAC872C";
name = "Regular Condensed";
paths = (
{
closed = 1;
nodes = (
"321 0 LINE",
"591 0 LINE",
"591 965 LINE",
"818 965 LINE",
"818 1182 LINE",
"591 1182 LINE",
"591 1592 LINE",
"321 1592 LINE",
"321 1182 LINE",
"91 1182 LINE",
"91 965 LINE",
"321 965 LINE"
);
}
);
width = 909;
}
);
unicode = 2020;
},
{
glyphname = daggerdbl;
layers = (
{
layerId = "7DA9E391-A28A-4B33-B824-B8724EAC872C";
name = "Regular Condensed";
paths = (
{
closed = 1;
nodes = (
"283 0 LINE",
"647 0 LINE",
"647 350 LINE",
"827 350 LINE",
"827 646 LINE",
"647 646 LINE",
"647 940 LINE",
"827 940 LINE",
"827 1236 LINE",
"647 1236 LINE",
"647 1592 LINE",
"283 1592 LINE",
"283 1236 LINE",
"100 1236 LINE",
"100 940 LINE",
"283 940 LINE",
"283 646 LINE",
"100 646 LINE",
"100 350 LINE",
"283 350 LINE"
);
}
);
width = 927;
}
);
unicode = 2021;
},
{
glyphname = degree;
layers = (
{
layerId = "7DA9E391-A28A-4B33-B824-B8724EAC872C";
name = "Regular Condensed";
paths = (
{
closed = 1;
nodes = (
"600 1182 OFFCURVE",
"547 1112 OFFCURVE",
"458 1112 CURVE SMOOTH",
"369 1112 OFFCURVE",
"316 1182 OFFCURVE",
"316 1269 CURVE SMOOTH",
"316 1356 OFFCURVE",
"369 1426 OFFCURVE",
"458 1426 CURVE SMOOTH",
"547 1426 OFFCURVE",
"600 1356 OFFCURVE",
"600 1269 CURVE SMOOTH"
);
},
{
closed = 1;
nodes = (
"104 1057 OFFCURVE",
"243 931 OFFCURVE",
"457 931 CURVE SMOOTH",
"671 931 OFFCURVE",
"811 1058 OFFCURVE",
"811 1269 CURVE SMOOTH",
"811 1480 OFFCURVE",
"671 1607 OFFCURVE",
"457 1607 CURVE SMOOTH",
"243 1607 OFFCURVE",
"104 1480 OFFCURVE",
"104 1269 CURVE SMOOTH"
);
}
);
width = 915;
}
);
unicode = 00B0;
},
{
glyphname = paragraph;
layers = (
{
layerId = "7DA9E391-A28A-4B33-B824-B8724EAC872C";
name = "Regular Condensed";
paths = (
{
closed = 1;
nodes = (
"442 0 LINE",
"636 0 LINE",
"636 1527 LINE",
"779 1527 LINE",
"779 0 LINE",
"973 0 LINE",
"973 1761 LINE",
"641 1761 LINE SMOOTH",
"292 1761 OFFCURVE",
"109 1704 OFFCURVE",
"109 1437 CURVE SMOOTH",
"109 1217 OFFCURVE",
"218 1112 OFFCURVE",
"442 1087 CURVE"
);
}
);
width = 1119;
}
);
unicode = 00B6;
},
{
glyphname = registered;
layers = (
{
layerId = "7DA9E391-A28A-4B33-B824-B8724EAC872C";
name = "Regular Condensed";
paths = (
{
closed = 1;
nodes = (
"529 430 LINE",
"719 430 LINE",
"719 818 LINE",
"769 818 OFFCURVE",
"791 812 OFFCURVE",
"791 762 CURVE SMOOTH",
"791 430 LINE",
"975 430 LINE",
"975 751 LINE SMOOTH",
"975 822 OFFCURVE",
"949 863 OFFCURVE",
"896 873 CURVE",
"968 896 OFFCURVE",
"989 951 OFFCURVE",
"989 1043 CURVE SMOOTH",
"989 1187 OFFCURVE",
"963 1282 OFFCURVE",
"818 1282 CURVE SMOOTH",
"529 1282 LINE"
);
},
{
closed = 1;
nodes = (
"1249 571 OFFCURVE",
"1040 334 OFFCURVE",
"751 334 CURVE SMOOTH",
"462 334 OFFCURVE",
"253 571 OFFCURVE",
"253 862 CURVE SMOOTH",
"253 1153 OFFCURVE",
"462 1390 OFFCURVE",
"751 1390 CURVE SMOOTH",
"1040 1390 OFFCURVE",
"1249 1153 OFFCURVE",
"1249 862 CURVE SMOOTH"
);
},
{
closed = 1;
nodes = (
"94 489 OFFCURVE",
"378 205 OFFCURVE",
"751 205 CURVE SMOOTH",
"1124 205 OFFCURVE",
"1408 489 OFFCURVE",
"1408 862 CURVE SMOOTH",
"1408 1235 OFFCURVE",
"1124 1519 OFFCURVE",
"751 1519 CURVE SMOOTH",
"378 1519 OFFCURVE",
"94 1235 OFFCURVE",
"94 862 CURVE SMOOTH"
);
},
{
closed = 1;
nodes = (
"720 965 LINE",
"720 1124 LINE",
"790 1124 OFFCURVE",
"805 1114 OFFCURVE",
"805 1043 CURVE SMOOTH",
"805 991 OFFCURVE",
"793 965 OFFCURVE",
"768 965 CURVE SMOOTH"
);
}
);
width = 1502;
}
);
unicode = 00AE;
},
{
glyphname = section;
layers = (
{
layerId = "7DA9E391-A28A-4B33-B824-B8724EAC872C";
name = "Regular Condensed";
paths = (
{
closed = 1;
nodes = (
"107 90 OFFCURVE",
"243 -20 OFFCURVE",
"488 -20 CURVE SMOOTH",
"714 -20 OFFCURVE",
"855 91 OFFCURVE",
"855 293 CURVE SMOOTH",
"855 430 OFFCURVE",
"794 511 OFFCURVE",
"700 598 CURVE",
"782 674 OFFCURVE",
"852 781 OFFCURVE",
"852 879 CURVE SMOOTH",
"852 1044 OFFCURVE",
"742 1156 OFFCURVE",
"640 1221 CURVE SMOOTH",
"594 1252 OFFCURVE",
"412 1368 OFFCURVE",
"412 1451 CURVE SMOOTH",
"412 1509 OFFCURVE",
"435 1542 OFFCURVE",
"497 1542 CURVE SMOOTH",
"560 1542 OFFCURVE",
"580 1502 OFFCURVE",
"580 1372 CURVE",
"853 1372 LINE",
"853 1667 OFFCURVE",
"725 1781 OFFCURVE",
"487 1781 CURVE SMOOTH",
"292 1781 OFFCURVE",
"125 1662 OFFCURVE",
"125 1433 CURVE SMOOTH",
"125 1328 OFFCURVE",
"166 1218 OFFCURVE",
"248 1143 CURVE",
"166 1067 OFFCURVE",
"125 960 OFFCURVE",
"125 862 CURVE SMOOTH",
"125 697 OFFCURVE",
"238 612 OFFCURVE",
"336 542 CURVE SMOOTH",
"454 457 OFFCURVE",
"566 388 OFFCURVE",
"566 303 CURVE SMOOTH",
"566 240 OFFCURVE",
"543 220 OFFCURVE",
"497 220 CURVE SMOOTH",
"445 220 OFFCURVE",
"406 244 OFFCURVE",
"406 391 CURVE",
"107 391 LINE"
);
},
{
closed = 1;
nodes = (
"586 822 OFFCURVE",
"565 775 OFFCURVE",
"541 735 CURVE",
"467 764 OFFCURVE",
"381 822 OFFCURVE",
"381 902 CURVE SMOOTH",
"381 935 OFFCURVE",
"396 974 OFFCURVE",
"426 1017 CURVE",
"546 967 OFFCURVE",
"586 906 OFFCURVE",
"586 856 CURVE SMOOTH"
);
}
);
width = 950;
}
);
unicode = 00A7;
},
{
glyphname = Euro;
layers = (
{
layerId = "7DA9E391-A28A-4B33-B824-B8724EAC872C";
name = "Regular Condensed";
paths = (
{
closed = 1;
nodes = (
"114 151 OFFCURVE",
"284 -21 OFFCURVE",
"539 -21 CURVE SMOOTH",
"819 -21 OFFCURVE",
"987 116 OFFCURVE",
"987 425 CURVE SMOOTH",
"987 548 LINE",
"631 548 LINE",
"631 420 LINE SMOOTH",
"631 341 OFFCURVE",
"604 294 OFFCURVE",
"544 294 CURVE SMOOTH",
"490 294 OFFCURVE",
"474 339 OFFCURVE",
"474 414 CURVE SMOOTH",
"474 721 LINE",
"838 721 LINE",
"838 869 LINE",
"474 869 LINE",
"474 966 LINE",
"838 966 LINE",
"838 1106 LINE",
"474 1106 LINE",
"474 1326 LINE SMOOTH",
"474 1404 OFFCURVE",
"482 1466 OFFCURVE",
"551 1466 CURVE SMOOTH",
"607 1466 OFFCURVE",
"631 1429 OFFCURVE",
"631 1324 CURVE SMOOTH",
"631 1231 LINE",
"979 1231 LINE",
"979 1368 LINE SMOOTH",
"979 1645 OFFCURVE",
"797 1781 OFFCURVE",
"547 1781 CURVE SMOOTH",
"242 1781 OFFCURVE",
"114 1595 OFFCURVE",
"114 1254 CURVE SMOOTH",
"114 1106 LINE",
"23 1106 LINE",
"23 966 LINE",
"114 966 LINE",
"114 869 LINE",
"23 869 LINE",
"23 721 LINE",
"114 721 LINE",
"114 436 LINE SMOOTH"
);
}
);
width = 1076;
}
);
unicode = 20AC;
},
{
glyphname = uni2215;
layers = (
{
layerId = "7DA9E391-A28A-4B33-B824-B8724EAC872C";
name = "Regular Condensed";
paths = (
{
closed = 1;
nodes = (
"57 0 LINE",
"276 0 LINE",
"746 1767 LINE",
"526 1767 LINE"
);
}
);
width = 829;
}
);
unicode = 2215;
},
{
glyphname = trademark;
layers = (
{
layerId = "7DA9E391-A28A-4B33-B824-B8724EAC872C";
name = "Regular Condensed";
paths = (
{
closed = 1;
nodes = (
"694 507 LINE",
"880 507 LINE",
"880 996 LINE",
"873 1469 LINE",
"1038 507 LINE",
"1223 507 LINE",
"1380 1469 LINE",
"1373 996 LINE",
"1373 507 LINE",
"1561 507 LINE",
"1561 1761 LINE",
"1273 1761 LINE",
"1129 883 LINE",
"981 1761 LINE",
"694 1761 LINE"
);
},
{
closed = 1;
nodes = (
"231 507 LINE",
"429 507 LINE",
"429 1592 LINE",
"572 1592 LINE",
"572 1761 LINE",
"82 1761 LINE",
"82 1592 LINE",
"231 1592 LINE"
);
}
);
width = 1676;
}
);
unicode = 2122;
},
{
glyphname = lozenge;
layers = (
{
layerId = "7DA9E391-A28A-4B33-B824-B8724EAC872C";
name = "Regular Condensed";
paths = (
{
closed = 1;
nodes = (
"443 179 LINE",
"309 713 LINE",
"443 1247 LINE",
"475 1247 LINE",
"609 713 LINE",
"475 179 LINE"
);
},
{
closed = 1;
nodes = (
"277 0 LINE",
"648 0 LINE",
"887 713 LINE",
"648 1436 LINE",
"277 1436 LINE",
"34 713 LINE"
);
}
);
width = 921;
}
);
unicode = 25CA;
},
{
glyphname = commaaccentcomb;
layers = (
{
anchors = (
{
name = _bottom;
position = "{281, 170}";
}
);
layerId = "7DA9E391-A28A-4B33-B824-B8724EAC872C";
name = "Regular Condensed";
paths = (
{
closed = 1;
nodes = (
"181 -562 LINE",
"302 -562 LINE",
"394 -249 LINE",
"394 5 LINE",
"121 5 LINE",
"121 -258 LINE",
"236 -258 LINE"
);
}
);
width = 528;
}
);
unicode = 0326;
},
{
glyphname = dblgravecmb;
layers = (
{
anchors = (
{
name = _top;
position = "{412, 1500}";
}
);
layerId = "7DA9E391-A28A-4B33-B824-B8724EAC872C";
name = "Regular Condensed";
paths = (
{
closed = 1;
nodes = (
"277 1644 LINE",
"400 1697 LINE",
"194 2109 LINE",
"3 2006 LINE"
);
},
{
closed = 1;
nodes = (
"601 1644 LINE",
"724 1697 LINE",
"555 2109 LINE",
"368 2006 LINE"
);
}
);
width = 825;
}
);
unicode = 030F;
},
{
glyphname = uni0307;
layers = (
{
anchors = (
{
name = _top;
position = "{286, 780}";
}
);
layerId = "7DA9E391-A28A-4B33-B824-B8724EAC872C";
name = "Regular Condensed";
paths = (
{
closed = 1;
nodes = (
"107 955 LINE",
"465 955 LINE",
"465 1253 LINE",
"107 1253 LINE"
);
}
);
width = 572;
}
);
unicode = 0307;
},
{
glyphname = uni0311;
layers = (
{
anchors = (
{
name = _top;
position = "{510, 1500}";
}
);
layerId = "7DA9E391-A28A-4B33-B824-B8724EAC872C";
name = "Regular Condensed";
paths = (
{
closed = 1;
nodes = (
"224 1644 LINE",
"375 1644 LINE",
"374 1757 OFFCURVE",
"433 1775 OFFCURVE",
"504 1776 CURVE SMOOTH",
"578 1777 OFFCURVE",
"637 1758 OFFCURVE",
"638 1648 CURVE",
"789 1649 LINE",
"789 1664 LINE",
"787 1837 OFFCURVE",
"691 1925 OFFCURVE",
"505 1923 CURVE SMOOTH",
"313 1921 OFFCURVE",
"223 1832 OFFCURVE",
"224 1657 CURVE SMOOTH"
);
}
);
width = 1016;
}
);
unicode = 0311;
},
{
glyphname = uni02C9;
layers = (
{
layerId = "7DA9E391-A28A-4B33-B824-B8724EAC872C";
name = "Regular Condensed";
paths = (
{
closed = 1;
nodes = (
"90 509 LINE",
"606 509 LINE",
"606 741 LINE",
"90 741 LINE"
);
}
);
width = 696;
}
);
unicode = 02C9;
},
{
glyphname = acute;
layers = (
{
anchors = (
{
name = _top;
position = "{307, 1625}";
}
);
layerId = "7DA9E391-A28A-4B33-B824-B8724EAC872C";
name = "Regular Condensed";
paths = (
{
closed = 1;
nodes = (
"101 1763 LINE",
"542 1853 LINE",
"542 2111 LINE",
"101 1919 LINE"
);
}
);
width = 650;
}
);
unicode = 00B4;
},
{
glyphname = breve;
layers = (
{
anchors = (
{
name = _top;
position = "{508, 1500}";
}
);
layerId = "7DA9E391-A28A-4B33-B824-B8724EAC872C";
name = "Regular Condensed";
paths = (
{
closed = 1;
nodes = (
"225 1704 OFFCURVE",
"320 1615 OFFCURVE",
"506 1615 CURVE SMOOTH",
"698 1615 OFFCURVE",
"789 1704 OFFCURVE",
"789 1879 CURVE SMOOTH",
"789 1892 LINE",
"638 1892 LINE",
"638 1780 OFFCURVE",
"579 1762 OFFCURVE",
"508 1762 CURVE SMOOTH",
"434 1762 OFFCURVE",
"375 1782 OFFCURVE",
"375 1892 CURVE",
"225 1892 LINE",
"225 1877 LINE SMOOTH"
);
}
);
width = 1016;
}
);
unicode = 02D8;
},
{
glyphname = caron;
layers = (
{
anchors = (
{
name = _top;
position = "{485, 1500}";
}
);
layerId = "7DA9E391-A28A-4B33-B824-B8724EAC872C";
name = "Regular Condensed";
paths = (
{
closed = 1;
nodes = (
"334 1608 LINE",
"636 1608 LINE",
"824 1946 LINE",
"571 1946 LINE",
"485 1709 LINE",
"399 1946 LINE",
"145 1946 LINE"
);
}
);
width = 970;
}
);
unicode = 02C7;
},
{
glyphname = cedilla;
layers = (
{
anchors = (
{
name = _bottom;
position = "{515, 0}";
}
);
layerId = "7DA9E391-A28A-4B33-B824-B8724EAC872C";
name = "Regular Condensed";
paths = (
{
closed = 1;
nodes = (
"366 -630 OFFCURVE",
"416 -638 OFFCURVE",
"466 -638 CURVE SMOOTH",
"649 -638 OFFCURVE",
"753 -522 OFFCURVE",
"753 -396 CURVE SMOOTH",
"753 -290 OFFCURVE",
"676 -193 OFFCURVE",
"525 -141 CURVE",
"510 0 LINE",
"428 0 LINE",
"388 -196 LINE",
"470 -214 OFFCURVE",
"548 -269 OFFCURVE",
"548 -359 CURVE SMOOTH",
"548 -434 OFFCURVE",
"506 -501 OFFCURVE",
"317 -501 CURVE",
"317 -612 LINE"
);
}
);
width = 1015;
}
);
unicode = 00B8;
},
{
glyphname = circumflex;
layers = (
{
anchors = (
{
name = _top;
position = "{485, 1500}";
}
);
layerId = "7DA9E391-A28A-4B33-B824-B8724EAC872C";
name = "Regular Condensed";
paths = (
{
closed = 1;
nodes = (
"145 1608 LINE",
"399 1608 LINE",
"485 1844 LINE",
"571 1608 LINE",
"824 1608 LINE",
"636 1945 LINE",
"334 1945 LINE"
);
}
);
width = 970;
}
);
unicode = 02C6;
},
{
glyphname = dieresis;
layers = (
{
anchors = (
{
name = _top;
position = "{488, 780}";
}
);
layerId = "7DA9E391-A28A-4B33-B824-B8724EAC872C";
name = "Regular Condensed";
paths = (
{
closed = 1;
nodes = (
"105 903 LINE",
"387 903 LINE",
"387 1129 LINE",
"105 1129 LINE"
);
},
{
closed = 1;
nodes = (
"589 903 LINE",
"871 903 LINE",
"871 1129 LINE",
"589 1129 LINE"
);
}
);
width = 976;
}
);
unicode = 00A8;
},
{
glyphname = dotaccent;
layers = (
{
anchors = (
{
name = _top;
position = "{286, 780}";
}
);
layerId = "7DA9E391-A28A-4B33-B824-B8724EAC872C";
name = "Regular Condensed";
paths = (
{
closed = 1;
nodes = (
"153 896 LINE",
"424 896 LINE",
"424 1122 LINE",
"153 1122 LINE"
);
}
);
width = 572;
}
);
unicode = 02D9;
},
{
glyphname = grave;
layers = (
{
anchors = (
{
name = _top;
position = "{309, 780}";
}
);
layerId = "7DA9E391-A28A-4B33-B824-B8724EAC872C";
name = "Regular Condensed";
paths = (
{
closed = 1;
nodes = (
"517 908 LINE",
"517 1064 LINE",
"104 1267 LINE",
"104 1002 LINE"
);
}
);
width = 650;
}
);
unicode = 0060;
},
{
glyphname = hungarumlaut;
layers = (
{
anchors = (
{
name = _top;
position = "{661, 780}";
}
);
layerId = "7DA9E391-A28A-4B33-B824-B8724EAC872C";
name = "Regular Condensed";
paths = (
{
closed = 1;
nodes = (
"449 953 LINE",
"694 1344 LINE",
"487 1441 LINE",
"336 1000 LINE"
);
},
{
closed = 1;
nodes = (
"784 948 LINE",
"1091 1340 LINE",
"880 1441 LINE",
"673 1000 LINE"
);
}
);
width = 1300;
}
);
unicode = 02DD;
},
{
glyphname = macron;
layers = (
{
anchors = (
{
name = _center;
position = "{342, 1009}";
},
{
name = _top;
position = "{348, 780}";
}
);
layerId = "7DA9E391-A28A-4B33-B824-B8724EAC872C";
name = "Regular Condensed";
paths = (
{
closed = 1;
nodes = (
"90 926 LINE",
"597 926 LINE",
"597 1077 LINE",
"90 1077 LINE"
);
}
);
width = 696;
}
);
unicode = 00AF;
},
{
glyphname = ogonek;
layers = (
{
anchors = (
{
name = _ogonek;
position = "{823, 6}";
}
);
layerId = "7DA9E391-A28A-4B33-B824-B8724EAC872C";
name = "Regular Condensed";
paths = (
{
closed = 1;
nodes = (
"358 -531 OFFCURVE",
"458 -626 OFFCURVE",
"643 -626 CURVE SMOOTH",
"711 -626 OFFCURVE",
"789 -604 OFFCURVE",
"812 -591 CURVE",
"812 -453 LINE",
"799 -456 OFFCURVE",
"754 -468 OFFCURVE",
"703 -468 CURVE SMOOTH",
"612 -468 OFFCURVE",
"551 -427 OFFCURVE",
"551 -339 CURVE SMOOTH",
"551 -231 OFFCURVE",
"630 -106 OFFCURVE",
"731 0 CURVE",
"624 0 LINE",
"447 -99 OFFCURVE",
"358 -253 OFFCURVE",
"358 -382 CURVE SMOOTH"
);
}
);
width = 1015;
}
);
unicode = 02DB;
},
{
glyphname = ring;
layers = (
{
anchors = (
{
name = _top;
position = "{462, 780}";
}
);
layerId = "7DA9E391-A28A-4B33-B824-B8724EAC872C";
name = "Regular Condensed";
paths = (
{
closed = 1;
nodes = (
"581 1065 OFFCURVE",
"541 1000 OFFCURVE",
"462 1000 CURVE SMOOTH",
"383 1000 OFFCURVE",
"343 1065 OFFCURVE",
"343 1131 CURVE SMOOTH",
"343 1196 OFFCURVE",
"383 1261 OFFCURVE",
"462 1261 CURVE SMOOTH",
"541 1261 OFFCURVE",
"581 1196 OFFCURVE",
"581 1131 CURVE SMOOTH"
);
},
{
closed = 1;
nodes = (
"228 1002 OFFCURVE",
"315 906 OFFCURVE",
"461 906 CURVE SMOOTH",
"608 906 OFFCURVE",
"694 1003 OFFCURVE",
"694 1130 CURVE SMOOTH",
"694 1257 OFFCURVE",
"608 1354 OFFCURVE",
"461 1354 CURVE SMOOTH",
"315 1354 OFFCURVE",
"228 1257 OFFCURVE",
"228 1130 CURVE SMOOTH"
);
}
);
width = 923;
}
);
unicode = 02DA;
},
